<svg width="1425" height="900" viewBox="0 0 1425 900" fill="none" xmlns="http://www.w3.org/2000/svg">
<g clip-path="url(#clip0_347_256)">
<mask id="mask0_347_256" style="mask-type:luminance" maskUnits="userSpaceOnUse" x="0" y="0" width="1425" height="900">
<path d="M1424.79 0H0V899.4H1424.79V0Z" fill="white"/>
</mask>
<g mask="url(#mask0_347_256)">
<mask id="mask1_347_256" style="mask-type:luminance" maskUnits="userSpaceOnUse" x="0" y="0" width="1425" height="902">
<path d="M1424.79 0H0V901.379H1424.79V0Z" fill="white"/>
</mask>
<g mask="url(#mask1_347_256)">
<path opacity="0.11" d="M1076.41 564.424C1075.48 564.721 1074.48 564.205 1074.18 563.272C1073.89 562.339 1074.4 561.341 1075.33 561.046C1076.27 560.749 1077.26 561.265 1077.57 562.198C1077.86 563.131 1077.35 564.129 1076.41 564.424Z" fill="white"/>
<path d="M1073.9 575.446C1073.19 575.667 1072.45 575.281 1072.23 574.581C1072.01 573.881 1072.39 573.134 1073.09 572.912C1073.79 572.689 1074.54 573.076 1074.76 573.777C1074.99 574.476 1074.6 575.223 1073.9 575.446Z" fill="white"/>
<path d="M1040.36 566.574C1039.65 566.796 1038.91 566.409 1038.68 565.709C1038.46 565.009 1038.84 564.262 1039.54 564.04C1040.25 563.817 1041 564.205 1041.22 564.904C1041.44 565.604 1041.06 566.351 1040.36 566.574Z" fill="white"/>
<path d="M1111.6 542.074C1110.91 542.297 1110.16 541.91 1109.93 541.21C1109.72 540.51 1110.1 539.763 1110.8 539.54C1111.5 539.318 1112.25 539.705 1112.48 540.405C1112.69 541.104 1112.31 541.852 1111.6 542.074Z" fill="white"/>
<path opacity="0.11" d="M1159.9 549.065C1158.97 549.362 1157.97 548.846 1157.67 547.913C1157.37 546.979 1157.88 545.982 1158.82 545.685C1159.75 545.39 1160.75 545.905 1161.05 546.839C1161.34 547.772 1160.83 548.769 1159.9 549.065Z" fill="white"/>
<path d="M1170 525.39C1169.54 525.539 1169.04 525.28 1168.89 524.814C1168.75 524.348 1169 523.85 1169.47 523.702C1169.93 523.554 1170.43 523.812 1170.59 524.278C1170.73 524.744 1170.48 525.242 1170 525.39Z" fill="white"/>
<path d="M1089.47 596.55C1089.01 596.698 1088.51 596.44 1088.36 595.974C1088.21 595.508 1088.47 595.009 1088.94 594.861C1089.4 594.713 1089.9 594.97 1090.05 595.437C1090.2 595.903 1089.95 596.401 1089.47 596.55Z" fill="white"/>
<path d="M905.341 655.043C904.875 655.192 904.376 654.933 904.227 654.467C904.078 654.001 904.335 653.503 904.801 653.355C905.267 653.207 905.767 653.465 905.916 653.931C906.065 654.397 905.808 654.895 905.341 655.043Z" fill="white"/>
<path d="M798.703 638.672C798.236 638.82 797.737 638.562 797.589 638.096C797.439 637.63 797.697 637.131 798.163 636.984C798.63 636.836 799.128 637.094 799.277 637.56C799.426 638.026 799.169 638.524 798.703 638.672Z" fill="white"/>
<path d="M785.457 710.787C784.991 710.936 784.492 710.677 784.343 710.211C784.194 709.744 784.452 709.247 784.918 709.099C785.384 708.951 785.882 709.208 786.032 709.675C786.181 710.141 785.924 710.639 785.457 710.787Z" fill="white"/>
<path d="M1364 486.1C1363.54 486.249 1363.03 485.991 1362.88 485.525C1362.73 485.059 1362.99 484.56 1363.46 484.413C1363.93 484.264 1364.43 484.522 1364.57 484.988C1364.72 485.454 1364.47 485.952 1364 486.1Z" fill="white"/>
<path opacity="0.11" d="M1362.09 436.469C1361.63 436.617 1361.13 436.359 1360.98 435.893C1360.82 435.426 1361.08 434.929 1361.56 434.78C1362.02 434.633 1362.52 434.89 1362.67 435.357C1362.81 435.823 1362.56 436.321 1362.09 436.469Z" fill="white"/>
<path opacity="0.11" d="M1404.62 444.361C1404.15 444.509 1403.65 444.251 1403.5 443.785C1403.35 443.319 1403.61 442.821 1404.07 442.673C1404.54 442.525 1405.04 442.783 1405.19 443.249C1405.34 443.715 1405.08 444.214 1404.62 444.361Z" fill="white"/>
<path opacity="0.11" d="M1392.93 503.891C1392.47 504.039 1391.96 503.781 1391.81 503.315C1391.67 502.849 1391.92 502.351 1392.4 502.203C1392.86 502.054 1393.36 502.312 1393.51 502.778C1393.65 503.244 1393.4 503.743 1392.93 503.891Z" fill="white"/>
<path opacity="0.11" d="M1181.12 533.952C1180.66 534.1 1180.15 533.842 1180 533.376C1179.86 532.91 1180.11 532.412 1180.58 532.264C1181.04 532.115 1181.55 532.374 1181.7 532.84C1181.85 533.306 1181.59 533.803 1181.12 533.952Z" fill="white"/>
<path opacity="0.11" d="M1100.87 626.427C1100.4 626.575 1099.91 626.317 1099.76 625.851C1099.61 625.385 1099.87 624.886 1100.34 624.739C1100.8 624.59 1101.29 624.849 1101.45 625.315C1101.6 625.781 1101.34 626.278 1100.87 626.427Z" fill="white"/>
<path opacity="0.11" d="M936.008 669.488C935.542 669.635 935.043 669.378 934.895 668.911C934.746 668.445 935.003 667.947 935.469 667.799C935.936 667.652 936.435 667.909 936.583 668.375C936.732 668.842 936.475 669.34 936.008 669.488Z" fill="white"/>
<path opacity="0.3" d="M1318.4 477.327C1317.93 477.475 1317.44 477.217 1317.29 476.751C1317.13 476.284 1317.39 475.787 1317.86 475.638C1318.33 475.491 1318.82 475.748 1318.97 476.215C1319.12 476.681 1318.86 477.179 1318.4 477.327Z" fill="white"/>
<path d="M1109.56 493.42C1109.09 493.569 1108.59 493.311 1108.44 492.845C1108.29 492.378 1108.55 491.881 1109.01 491.732C1109.48 491.584 1109.98 491.842 1110.13 492.308C1110.28 492.774 1110.02 493.273 1109.56 493.42Z" fill="white"/>
<path d="M978.941 533.048C978.474 533.197 977.975 532.939 977.827 532.473C977.677 532.006 977.935 531.508 978.401 531.36C978.868 531.212 979.366 531.47 979.515 531.936C979.664 532.402 979.407 532.9 978.941 533.048Z" fill="white"/>
<path d="M1191.82 552.881C1191.35 553.029 1190.85 552.771 1190.7 552.305C1190.55 551.839 1190.81 551.34 1191.27 551.193C1191.75 551.044 1192.24 551.303 1192.39 551.769C1192.54 552.235 1192.28 552.732 1191.82 552.881Z" fill="white"/>
<path opacity="0.3" d="M1250.95 534.102C1250.48 534.25 1249.98 533.992 1249.83 533.525C1249.68 533.059 1249.94 532.562 1250.4 532.413C1250.88 532.266 1251.37 532.523 1251.52 532.989C1251.67 533.456 1251.41 533.954 1250.95 534.102Z" fill="white"/>
<path opacity="0.11" d="M1303.47 459.745C1303 459.893 1302.51 459.635 1302.36 459.169C1302.21 458.703 1302.47 458.205 1302.93 458.057C1303.4 457.908 1303.89 458.167 1304.04 458.633C1304.19 459.099 1303.93 459.597 1303.47 459.745Z" fill="white"/>
<path opacity="0.3" d="M1100.82 518.527C1100.36 518.676 1099.86 518.418 1099.71 517.951C1099.56 517.485 1099.82 516.988 1100.29 516.839C1100.75 516.691 1101.25 516.949 1101.39 517.415C1101.55 517.881 1101.3 518.38 1100.82 518.527Z" fill="white"/>
<path opacity="0.3" d="M1182.59 573.495C1182.12 573.643 1181.62 573.385 1181.47 572.919C1181.32 572.453 1181.58 571.954 1182.04 571.807C1182.51 571.658 1183.01 571.916 1183.16 572.383C1183.31 572.849 1183.05 573.346 1182.59 573.495Z" fill="white"/>
<path opacity="0.3" d="M1287.49 549.476C1287.02 549.623 1286.53 549.366 1286.38 548.899C1286.22 548.433 1286.48 547.935 1286.95 547.787C1287.42 547.64 1287.91 547.897 1288.06 548.363C1288.21 548.83 1287.95 549.328 1287.49 549.476Z" fill="white"/>
<path opacity="0.3" d="M1293.9 485.109C1293.43 485.257 1292.94 484.999 1292.79 484.533C1292.64 484.067 1292.9 483.568 1293.36 483.421C1293.83 483.273 1294.32 483.531 1294.47 483.997C1294.62 484.463 1294.36 484.961 1293.9 485.109Z" fill="white"/>
<path opacity="0.3" d="M767.726 649.443C767.26 649.591 766.762 649.333 766.613 648.867C766.464 648.401 766.721 647.902 767.187 647.754C767.653 647.607 768.153 647.864 768.301 648.331C768.451 648.797 768.193 649.295 767.726 649.443Z" fill="white"/>
<path opacity="0.11" d="M892.646 571.621C892.18 571.769 891.68 571.512 891.532 571.045C891.382 570.579 891.64 570.081 892.107 569.933C892.573 569.784 893.071 570.043 893.22 570.509C893.369 570.975 893.112 571.473 892.646 571.621Z" fill="white"/>
<path opacity="0.11" d="M802.132 678.518C801.666 678.665 801.166 678.408 801.018 677.941C800.869 677.475 801.126 676.977 801.593 676.829C802.059 676.681 802.558 676.939 802.707 677.405C802.855 677.872 802.598 678.369 802.132 678.518Z" fill="white"/>
<path opacity="0.3" d="M1018.26 618.24C1017.33 618.537 1016.33 618.02 1016.04 617.087C1015.73 616.154 1016.25 615.157 1017.18 614.86C1018.11 614.564 1019.11 615.081 1019.41 616.014C1019.71 616.947 1019.19 617.943 1018.26 618.24Z" fill="white"/>
<path opacity="0.11" d="M960.326 608.736C959.392 609.033 958.394 608.517 958.096 607.584C957.798 606.651 958.313 605.654 959.246 605.358C960.18 605.061 961.178 605.577 961.476 606.51C961.774 607.443 961.259 608.441 960.326 608.736Z" fill="white"/>
<path d="M951.306 579.043C950.606 579.265 949.857 578.878 949.634 578.179C949.41 577.479 949.796 576.731 950.497 576.509C951.196 576.287 951.945 576.674 952.168 577.373C952.391 578.074 952.005 578.821 951.306 579.043Z" fill="white"/>
<path d="M1037.91 649.215C1037.22 649.438 1036.47 649.051 1036.24 648.352C1036.02 647.652 1036.41 646.904 1037.1 646.682C1037.8 646.46 1038.55 646.847 1038.77 647.546C1039 648.246 1038.61 648.994 1037.91 649.215Z" fill="white"/>
<path d="M762.891 755.172C762.19 755.395 761.442 755.008 761.219 754.309C760.995 753.608 761.381 752.861 762.081 752.639C762.781 752.417 763.529 752.804 763.753 753.503C763.976 754.203 763.59 754.951 762.891 755.172Z" fill="white"/>
<path d="M1306.48 566.698C1305.78 566.921 1305.03 566.534 1304.81 565.833C1304.58 565.134 1304.97 564.387 1305.67 564.164C1306.38 563.942 1307.12 564.329 1307.35 565.029C1307.57 565.729 1307.19 566.476 1306.48 566.698Z" fill="white"/>
<path d="M1412.61 511.601C1411.91 511.823 1411.16 511.436 1410.94 510.736C1410.71 510.037 1411.1 509.289 1411.8 509.067C1412.5 508.845 1413.25 509.232 1413.47 509.931C1413.7 510.631 1413.31 511.379 1412.61 511.601Z" fill="white"/>
<path d="M1416.17 473.255C1415.47 473.476 1414.73 473.089 1414.5 472.39C1414.28 471.69 1414.67 470.942 1415.36 470.721C1416.06 470.498 1416.82 470.885 1417.03 471.584C1417.26 472.285 1416.88 473.032 1416.17 473.255Z" fill="white"/>
<path d="M997.236 583.064C996.543 583.286 995.791 582.899 995.564 582.199C995.346 581.499 995.732 580.752 996.434 580.53C997.127 580.307 997.879 580.695 998.097 581.394C998.324 582.094 997.938 582.841 997.236 583.064Z" fill="white"/>
<path d="M1164.18 598.878C1163.48 599.099 1162.73 598.712 1162.51 598.013C1162.28 597.313 1162.67 596.565 1163.37 596.344C1164.07 596.121 1164.82 596.508 1165.04 597.208C1165.26 597.908 1164.88 598.655 1164.18 598.878Z" fill="white"/>
<path d="M962.932 702.805C962.232 703.027 961.484 702.64 961.261 701.941C961.037 701.241 961.423 700.493 962.123 700.271C962.822 700.049 963.571 700.436 963.795 701.135C964.018 701.836 963.632 702.583 962.932 702.805Z" fill="white"/>
<path d="M720.754 716.459C720.053 716.681 719.305 716.294 719.082 715.595C718.858 714.895 719.244 714.147 719.944 713.925C720.644 713.703 721.392 714.09 721.615 714.79C721.839 715.489 721.453 716.237 720.754 716.459Z" fill="white"/>
<path d="M685.636 676.445C684.937 676.667 684.188 676.281 683.964 675.58C683.741 674.881 684.128 674.133 684.827 673.911C685.527 673.688 686.276 674.076 686.499 674.776C686.723 675.475 686.336 676.222 685.636 676.445Z" fill="white"/>
<path opacity="0.3" d="M881.89 602.019C880.957 602.316 879.958 601.8 879.66 600.867C879.362 599.933 879.877 598.936 880.81 598.64C881.743 598.343 882.742 598.86 883.041 599.793C883.338 600.726 882.823 601.723 881.89 602.019Z" fill="white"/>
<path d="M862.733 542.054C861.799 542.351 860.801 541.835 860.503 540.902C860.205 539.967 860.72 538.971 861.654 538.674C862.587 538.378 863.585 538.894 863.883 539.828C864.182 540.761 863.666 541.757 862.733 542.054Z" fill="white"/>
<path d="M844.324 634.419C843.624 634.642 842.875 634.255 842.651 633.556C842.428 632.856 842.814 632.108 843.514 631.885C844.214 631.664 844.963 632.051 845.185 632.75C845.409 633.45 845.023 634.198 844.324 634.419Z" fill="white"/>
<path opacity="0.3" d="M792.833 614.497C791.9 614.793 790.901 614.277 790.603 613.343C790.305 612.41 790.82 611.414 791.753 611.117C792.686 610.821 793.685 611.337 793.983 612.27C794.281 613.204 793.767 614.2 792.833 614.497Z" fill="white"/>
<path opacity="0.3" d="M728.369 701.017C727.436 701.313 726.437 700.797 726.14 699.864C725.841 698.931 726.356 697.933 727.289 697.638C728.223 697.341 729.222 697.857 729.519 698.79C729.817 699.723 729.303 700.72 728.369 701.017Z" fill="white"/>
<path opacity="0.3" d="M827.739 671.312C826.806 671.607 825.808 671.092 825.509 670.158C825.211 669.225 825.726 668.228 826.659 667.932C827.592 667.635 828.591 668.151 828.89 669.084C829.187 670.018 828.672 671.015 827.739 671.312Z" fill="white"/>
<path opacity="0.3" d="M1317.15 531.677C1316.22 531.973 1315.22 531.457 1314.92 530.523C1314.63 529.59 1315.14 528.594 1316.07 528.297C1317 528 1318 528.517 1318.3 529.45C1318.61 530.384 1318.09 531.38 1317.15 531.677Z" fill="white"/>
<path opacity="0.3" d="M1370.74 463.494C1369.8 463.791 1368.8 463.274 1368.5 462.341C1368.21 461.408 1368.72 460.412 1369.65 460.115C1370.59 459.818 1371.59 460.335 1371.89 461.268C1372.18 462.201 1371.67 463.198 1370.74 463.494Z" fill="white"/>
<path opacity="0.11" d="M754.909 664.674C753.976 664.97 752.978 664.455 752.68 663.521C752.381 662.588 752.897 661.591 753.83 661.295C754.763 660.998 755.761 661.514 756.06 662.447C756.358 663.381 755.842 664.378 754.909 664.674Z" fill="white"/>
<path opacity="0.3" d="M1240.77 473.145C1239.84 473.441 1238.84 472.924 1238.54 471.991C1238.24 471.058 1238.76 470.061 1239.69 469.765C1240.62 469.468 1241.62 469.985 1241.92 470.918C1242.22 471.851 1241.71 472.848 1240.77 473.145Z" fill="white"/>
<path opacity="0.11" d="M1258.18 449.009C1257.24 449.306 1256.25 448.79 1255.94 447.857C1255.65 446.923 1256.16 445.926 1257.1 445.629C1258.03 445.334 1259.03 445.849 1259.33 446.783C1259.63 447.716 1259.11 448.713 1258.18 449.009Z" fill="white"/>
<path opacity="0.3" d="M1282.2 500.912C1281.27 501.209 1280.27 500.693 1279.98 499.76C1279.68 498.826 1280.2 497.829 1281.13 497.532C1282.07 497.237 1283.06 497.752 1283.36 498.686C1283.66 499.619 1283.14 500.616 1282.2 500.912Z" fill="white"/>
<path d="M1229.15 516.838C1228.45 517.06 1227.7 516.673 1227.48 515.974C1227.25 515.274 1227.64 514.526 1228.34 514.303C1229.04 514.082 1229.78 514.469 1230.01 515.168C1230.24 515.868 1229.85 516.616 1229.15 516.838Z" fill="white"/>
<path opacity="0.11" d="M701.911 399.278C700.978 399.575 699.979 399.059 699.682 398.126C699.383 397.192 699.898 396.195 700.831 395.899C701.764 395.602 702.763 396.119 703.061 397.052C703.359 397.985 702.845 398.982 701.911 399.278Z" fill="white"/>
<path d="M699.392 410.311C698.692 410.534 697.943 410.147 697.72 409.448C697.496 408.748 697.882 408 698.583 407.777C699.282 407.556 700.03 407.943 700.254 408.642C700.477 409.342 700.091 410.09 699.392 410.311Z" fill="white"/>
<path d="M665.849 401.435C665.149 401.657 664.4 401.27 664.177 400.57C663.953 399.871 664.34 399.123 665.039 398.901C665.739 398.679 666.488 399.065 666.712 399.765C666.934 400.466 666.548 401.213 665.849 401.435Z" fill="white"/>
<path d="M737.106 376.939C736.406 377.161 735.658 376.773 735.434 376.074C735.21 375.374 735.596 374.627 736.296 374.405C736.996 374.182 737.744 374.569 737.968 375.269C738.192 375.969 737.806 376.716 737.106 376.939Z" fill="white"/>
<path opacity="0.11" d="M785.395 383.928C784.462 384.224 783.463 383.707 783.165 382.774C782.867 381.841 783.382 380.845 784.315 380.548C785.248 380.251 786.247 380.768 786.545 381.701C786.843 382.634 786.329 383.631 785.395 383.928Z" fill="white"/>
<path d="M795.504 360.249C795.038 360.396 794.539 360.139 794.39 359.672C794.241 359.206 794.499 358.708 794.965 358.56C795.431 358.412 795.929 358.67 796.079 359.136C796.227 359.603 795.97 360.1 795.504 360.249Z" fill="white"/>
<path d="M714.975 431.41C714.509 431.559 714.011 431.301 713.861 430.834C713.712 430.368 713.969 429.871 714.436 429.722C714.902 429.574 715.401 429.832 715.55 430.298C715.699 430.764 715.441 431.263 714.975 431.41Z" fill="white"/>
<path d="M530.841 489.903C530.375 490.05 529.875 489.793 529.727 489.327C529.577 488.86 529.834 488.362 530.301 488.214C530.767 488.066 531.266 488.324 531.416 488.79C531.564 489.257 531.307 489.754 530.841 489.903Z" fill="white"/>
<path d="M424.202 473.532C423.736 473.679 423.237 473.422 423.088 472.956C422.94 472.489 423.197 471.991 423.663 471.843C424.129 471.695 424.627 471.952 424.777 472.419C424.925 472.886 424.668 473.383 424.202 473.532Z" fill="white"/>
<path d="M410.956 545.653C410.489 545.801 409.991 545.543 409.842 545.077C409.693 544.611 409.95 544.113 410.417 543.965C410.883 543.816 411.382 544.075 411.53 544.541C411.68 545.007 411.422 545.505 410.956 545.653Z" fill="white"/>
<path d="M989.498 320.957C989.029 321.105 988.531 320.847 988.382 320.381C988.233 319.914 988.49 319.417 988.956 319.268C989.423 319.121 989.924 319.378 990.072 319.844C990.221 320.311 989.963 320.809 989.498 320.957Z" fill="white"/>
<path opacity="0.11" d="M987.589 271.333C987.123 271.481 986.624 271.223 986.475 270.757C986.326 270.291 986.583 269.793 987.049 269.645C987.516 269.496 988.015 269.755 988.164 270.221C988.313 270.687 988.056 271.185 987.589 271.333Z" fill="white"/>
<path opacity="0.11" d="M1030.11 279.221C1029.65 279.369 1029.15 279.111 1029 278.645C1028.85 278.179 1029.11 277.68 1029.58 277.533C1030.05 277.384 1030.54 277.643 1030.69 278.109C1030.84 278.575 1030.58 279.072 1030.11 279.221Z" fill="white"/>
<path opacity="0.11" d="M1018.43 338.748C1017.96 338.897 1017.47 338.638 1017.32 338.172C1017.16 337.706 1017.42 337.208 1017.89 337.06C1018.36 336.912 1018.85 337.17 1019 337.636C1019.15 338.102 1018.89 338.6 1018.43 338.748Z" fill="white"/>
<path opacity="0.11" d="M806.615 368.806C806.149 368.955 805.65 368.697 805.501 368.231C805.353 367.765 805.61 367.266 806.076 367.118C806.542 366.97 807.041 367.228 807.19 367.694C807.338 368.16 807.081 368.658 806.615 368.806Z" fill="white"/>
<path opacity="0.11" d="M726.374 461.288C725.908 461.436 725.409 461.178 725.26 460.712C725.11 460.245 725.369 459.748 725.835 459.599C726.301 459.452 726.799 459.709 726.949 460.176C727.097 460.642 726.84 461.14 726.374 461.288Z" fill="white"/>
<path opacity="0.11" d="M561.505 504.343C561.038 504.491 560.539 504.233 560.391 503.767C560.241 503.301 560.498 502.803 560.965 502.655C561.432 502.506 561.93 502.765 562.079 503.231C562.228 503.697 561.971 504.195 561.505 504.343Z" fill="white"/>
<path opacity="0.3" d="M943.89 312.187C943.424 312.335 942.925 312.077 942.776 311.611C942.627 311.145 942.885 310.647 943.351 310.499C943.817 310.35 944.316 310.609 944.465 311.075C944.614 311.541 944.357 312.039 943.89 312.187Z" fill="white"/>
<path d="M735.055 328.284C734.589 328.432 734.09 328.174 733.941 327.708C733.792 327.242 734.049 326.743 734.516 326.596C734.982 326.448 735.48 326.706 735.63 327.172C735.778 327.638 735.521 328.136 735.055 328.284Z" fill="white"/>
<path d="M604.442 367.909C603.975 368.056 603.477 367.799 603.328 367.333C603.179 366.866 603.436 366.368 603.902 366.22C604.369 366.073 604.868 366.33 605.016 366.797C605.166 367.263 604.908 367.761 604.442 367.909Z" fill="white"/>
<path d="M817.316 387.741C816.85 387.889 816.352 387.632 816.202 387.165C816.054 386.698 816.311 386.201 816.777 386.052C817.243 385.905 817.742 386.162 817.891 386.628C818.04 387.095 817.782 387.593 817.316 387.741Z" fill="white"/>
<path opacity="0.3" d="M876.442 368.961C875.976 369.109 875.478 368.851 875.328 368.385C875.18 367.919 875.437 367.421 875.903 367.273C876.369 367.124 876.868 367.383 877.017 367.849C877.166 368.315 876.909 368.813 876.442 368.961Z" fill="white"/>
<path opacity="0.11" d="M928.967 294.608C928.501 294.756 928.001 294.499 927.853 294.033C927.704 293.566 927.961 293.068 928.428 292.919C928.894 292.772 929.393 293.029 929.541 293.496C929.69 293.962 929.433 294.46 928.967 294.608Z" fill="white"/>
<path opacity="0.3" d="M726.325 353.388C725.858 353.536 725.359 353.278 725.21 352.812C725.061 352.346 725.318 351.847 725.784 351.7C726.251 351.552 726.75 351.81 726.898 352.276C727.048 352.742 726.791 353.24 726.325 353.388Z" fill="white"/>
<path opacity="0.3" d="M808.08 408.354C807.613 408.502 807.115 408.245 806.965 407.778C806.817 407.311 807.074 406.814 807.54 406.665C808.006 406.518 808.505 406.775 808.654 407.242C808.803 407.708 808.546 408.206 808.08 408.354Z" fill="white"/>
<path opacity="0.3" d="M912.983 384.336C912.517 384.484 912.018 384.226 911.87 383.76C911.72 383.294 911.977 382.796 912.443 382.648C912.91 382.499 913.409 382.758 913.558 383.224C913.707 383.69 913.45 384.188 912.983 384.336Z" fill="white"/>
<path opacity="0.3" d="M919.395 319.974C918.929 320.121 918.431 319.864 918.282 319.397C918.133 318.931 918.39 318.433 918.856 318.285C919.323 318.136 919.822 318.395 919.97 318.861C920.12 319.328 919.862 319.825 919.395 319.974Z" fill="white"/>
<path opacity="0.3" d="M393.225 484.307C392.759 484.455 392.26 484.197 392.111 483.731C391.962 483.265 392.22 482.767 392.686 482.619C393.152 482.47 393.651 482.728 393.8 483.194C393.949 483.661 393.692 484.159 393.225 484.307Z" fill="white"/>
<path opacity="0.11" d="M518.147 406.48C517.681 406.629 517.183 406.37 517.033 405.904C516.885 405.438 517.142 404.941 517.608 404.792C518.074 404.644 518.573 404.902 518.722 405.368C518.871 405.834 518.613 406.332 518.147 406.48Z" fill="white"/>
<path opacity="0.11" d="M427.626 513.373C427.16 513.522 426.662 513.264 426.512 512.798C426.364 512.331 426.621 511.834 427.087 511.685C427.553 511.537 428.053 511.795 428.201 512.261C428.351 512.727 428.093 513.226 427.626 513.373Z" fill="white"/>
<path opacity="0.3" d="M643.755 453.105C642.822 453.401 641.824 452.884 641.526 451.951C641.227 451.018 641.743 450.022 642.676 449.725C643.609 449.428 644.607 449.944 644.906 450.877C645.204 451.81 644.69 452.808 643.755 453.105Z" fill="white"/>
<path opacity="0.11" d="M585.826 443.598C584.893 443.895 583.895 443.378 583.596 442.445C583.298 441.512 583.812 440.515 584.746 440.219C585.679 439.922 586.678 440.439 586.976 441.372C587.274 442.305 586.759 443.302 585.826 443.598Z" fill="white"/>
<path d="M576.798 413.904C576.098 414.127 575.35 413.74 575.126 413.04C574.902 412.34 575.288 411.593 575.988 411.37C576.688 411.148 577.436 411.535 577.66 412.235C577.884 412.934 577.498 413.682 576.798 413.904Z" fill="white"/>
<path d="M663.413 484.076C662.712 484.299 661.964 483.912 661.741 483.211C661.517 482.512 661.903 481.765 662.603 481.542C663.303 481.32 664.051 481.707 664.275 482.407C664.498 483.106 664.112 483.853 663.413 484.076Z" fill="white"/>
<path d="M388.387 590.034C387.687 590.257 386.939 589.87 386.715 589.169C386.492 588.47 386.878 587.723 387.577 587.5C388.278 587.278 389.026 587.665 389.249 588.365C389.473 589.065 389.087 589.811 388.387 590.034Z" fill="white"/>
<path d="M931.982 401.558C931.282 401.779 930.534 401.393 930.31 400.693C930.086 399.994 930.472 399.246 931.172 399.024C931.872 398.801 932.62 399.188 932.844 399.888C933.068 400.588 932.682 401.335 931.982 401.558Z" fill="white"/>
<path d="M1038.11 346.457C1037.41 346.68 1036.66 346.293 1036.44 345.593C1036.21 344.893 1036.6 344.146 1037.3 343.923C1037.99 343.701 1038.74 344.088 1038.97 344.788C1039.19 345.487 1038.8 346.235 1038.11 346.457Z" fill="white"/>
<path d="M1041.67 308.11C1040.97 308.333 1040.22 307.946 1040 307.247C1039.77 306.547 1040.16 305.799 1040.86 305.576C1041.56 305.355 1042.3 305.742 1042.53 306.441C1042.76 307.141 1042.37 307.889 1041.67 308.11Z" fill="white"/>
<path d="M622.736 417.921C622.036 418.143 621.288 417.756 621.064 417.056C620.84 416.357 621.226 415.61 621.927 415.387C622.626 415.165 623.374 415.552 623.598 416.252C623.822 416.952 623.436 417.699 622.736 417.921Z" fill="white"/>
<path d="M789.673 433.739C788.974 433.962 788.225 433.575 788.001 432.875C787.777 432.175 788.163 431.428 788.864 431.205C789.563 430.983 790.312 431.371 790.536 432.07C790.759 432.77 790.373 433.517 789.673 433.739Z" fill="white"/>
<path d="M588.424 537.662C587.724 537.885 586.975 537.498 586.752 536.798C586.528 536.098 586.915 535.351 587.615 535.128C588.314 534.907 589.063 535.293 589.287 535.993C589.51 536.692 589.124 537.44 588.424 537.662Z" fill="white"/>
<path d="M346.245 551.322C345.546 551.545 344.798 551.157 344.574 550.458C344.35 549.758 344.736 549.011 345.436 548.788C346.135 548.566 346.884 548.954 347.108 549.653C347.332 550.353 346.946 551.1 346.245 551.322Z" fill="white"/>
<path d="M311.136 511.312C310.436 511.534 309.688 511.147 309.465 510.448C309.241 509.748 309.627 509 310.327 508.778C311.027 508.556 311.775 508.943 311.999 509.642C312.222 510.342 311.837 511.09 311.136 511.312Z" fill="white"/>
<path opacity="0.3" d="M507.383 436.88C506.45 437.177 505.452 436.66 505.154 435.727C504.855 434.794 505.371 433.797 506.304 433.5C507.237 433.204 508.235 433.721 508.534 434.654C508.832 435.587 508.317 436.583 507.383 436.88Z" fill="white"/>
<path d="M488.23 376.915C487.297 377.211 486.298 376.695 486 375.761C485.702 374.828 486.216 373.832 487.15 373.535C488.083 373.238 489.082 373.755 489.379 374.688C489.678 375.621 489.163 376.618 488.23 376.915Z" fill="white"/>
<path d="M469.818 469.281C469.119 469.504 468.371 469.117 468.147 468.416C467.923 467.717 468.309 466.97 469.009 466.747C469.709 466.524 470.457 466.912 470.681 467.612C470.905 468.311 470.519 469.058 469.818 469.281Z" fill="white"/>
<path opacity="0.3" d="M418.328 449.355C417.395 449.651 416.396 449.134 416.098 448.201C415.8 447.268 416.314 446.272 417.248 445.975C418.181 445.678 419.18 446.194 419.478 447.127C419.776 448.061 419.261 449.058 418.328 449.355Z" fill="white"/>
<path opacity="0.3" d="M353.875 535.878C352.941 536.174 351.942 535.659 351.645 534.724C351.347 533.791 351.861 532.795 352.795 532.498C353.728 532.202 354.727 532.718 355.024 533.651C355.323 534.585 354.808 535.581 353.875 535.878Z" fill="white"/>
<path opacity="0.3" d="M453.233 506.172C452.299 506.469 451.301 505.953 451.003 505.02C450.705 504.087 451.22 503.089 452.153 502.793C453.087 502.496 454.085 503.013 454.383 503.946C454.681 504.879 454.166 505.876 453.233 506.172Z" fill="white"/>
<path opacity="0.3" d="M942.651 366.541C941.718 366.837 940.72 366.321 940.422 365.388C940.123 364.455 940.639 363.458 941.572 363.162C942.505 362.865 943.503 363.381 943.802 364.314C944.1 365.247 943.585 366.245 942.651 366.541Z" fill="white"/>
<path opacity="0.3" d="M996.236 298.35C995.306 298.647 994.307 298.131 994.01 297.198C993.703 296.265 994.218 295.267 995.158 294.972C996.088 294.675 997.087 295.191 997.384 296.124C997.681 297.057 997.166 298.055 996.236 298.35Z" fill="white"/>
<path opacity="0.11" d="M380.405 499.538C379.471 499.835 378.472 499.318 378.174 498.385C377.877 497.452 378.391 496.455 379.324 496.159C380.258 495.862 381.256 496.379 381.554 497.312C381.852 498.245 381.338 499.242 380.405 499.538Z" fill="white"/>
<path opacity="0.3" d="M866.272 308.002C865.339 308.299 864.34 307.783 864.042 306.85C863.744 305.917 864.258 304.919 865.192 304.624C866.125 304.327 867.124 304.843 867.421 305.776C867.72 306.709 867.205 307.707 866.272 308.002Z" fill="white"/>
<path opacity="0.11" d="M883.682 283.866C882.748 284.162 881.75 283.646 881.452 282.712C881.154 281.779 881.668 280.783 882.601 280.486C883.535 280.189 884.534 280.706 884.832 281.639C885.129 282.573 884.615 283.569 883.682 283.866Z" fill="white"/>
<path opacity="0.3" d="M907.699 335.779C906.766 336.076 905.768 335.559 905.469 334.626C905.171 333.693 905.687 332.696 906.62 332.4C907.553 332.103 908.551 332.62 908.85 333.553C909.148 334.486 908.632 335.483 907.699 335.779Z" fill="white"/>
<path d="M854.644 351.698C853.943 351.921 853.195 351.534 852.972 350.833C852.748 350.134 853.134 349.387 853.834 349.164C854.534 348.941 855.282 349.329 855.506 350.029C855.729 350.728 855.343 351.475 854.644 351.698Z" fill="white"/>
<path opacity="0.11" d="M300.045 672.683C299.112 672.98 298.114 672.463 297.816 671.53C297.518 670.597 298.033 669.6 298.966 669.304C299.9 669.007 300.898 669.524 301.196 670.457C301.494 671.39 300.979 672.387 300.045 672.683Z" fill="white"/>
<path d="M297.529 683.718C296.83 683.94 296.081 683.553 295.857 682.853C295.633 682.154 296.02 681.406 296.72 681.184C297.419 680.962 298.168 681.348 298.392 682.048C298.616 682.748 298.229 683.496 297.529 683.718Z" fill="white"/>
<path d="M263.988 674.837C263.288 675.06 262.54 674.672 262.316 673.972C262.092 673.273 262.478 672.526 263.178 672.303C263.878 672.08 264.626 672.468 264.85 673.168C265.074 673.867 264.688 674.614 263.988 674.837Z" fill="white"/>
<path d="M335.241 650.336C334.541 650.559 333.792 650.172 333.568 649.473C333.345 648.772 333.731 648.025 334.431 647.802C335.131 647.581 335.879 647.968 336.102 648.667C336.326 649.367 335.94 650.115 335.241 650.336Z" fill="white"/>
<path opacity="0.11" d="M383.529 657.326C382.596 657.623 381.598 657.106 381.299 656.173C381.001 655.239 381.516 654.243 382.45 653.946C383.383 653.65 384.381 654.166 384.679 655.1C384.978 656.033 384.462 657.029 383.529 657.326Z" fill="white"/>
<path d="M393.643 633.651C393.177 633.799 392.679 633.541 392.529 633.075C392.381 632.609 392.638 632.11 393.104 631.963C393.57 631.814 394.069 632.071 394.218 632.538C394.367 633.004 394.109 633.502 393.643 633.651Z" fill="white"/>
<path d="M313.11 704.809C312.644 704.957 312.145 704.699 311.996 704.233C311.847 703.767 312.104 703.268 312.571 703.121C313.037 702.973 313.535 703.23 313.685 703.697C313.833 704.163 313.576 704.661 313.11 704.809Z" fill="white"/>
<path d="M128.973 763.305C128.507 763.453 128.009 763.195 127.859 762.729C127.711 762.263 127.968 761.764 128.434 761.617C128.9 761.468 129.399 761.727 129.548 762.193C129.697 762.659 129.439 763.156 128.973 763.305Z" fill="white"/>
<path d="M22.3367 746.93C21.8704 747.079 21.3716 746.821 21.2227 746.355C21.0738 745.889 21.331 745.39 21.7973 745.242C22.2636 745.094 22.7622 745.352 22.9112 745.818C23.0602 746.284 22.803 746.782 22.3367 746.93Z" fill="white"/>
<path d="M9.09371 819.054C8.62743 819.201 8.12872 818.944 7.97977 818.478C7.83082 818.011 8.08804 817.513 8.55432 817.365C9.02059 817.217 9.51939 817.474 9.66834 817.941C9.81729 818.407 9.55998 818.905 9.09371 819.054Z" fill="white"/>
<path d="M587.634 594.363C587.168 594.511 586.669 594.253 586.52 593.787C586.371 593.321 586.628 592.822 587.094 592.675C587.56 592.526 588.059 592.784 588.208 593.251C588.357 593.717 588.1 594.214 587.634 594.363Z" fill="white"/>
<path opacity="0.11" d="M585.728 544.733C585.262 544.88 584.763 544.623 584.615 544.157C584.465 543.69 584.723 543.192 585.189 543.044C585.656 542.896 586.154 543.153 586.303 543.62C586.452 544.087 586.195 544.584 585.728 544.733Z" fill="white"/>
<path opacity="0.11" d="M628.25 552.625C627.783 552.774 627.285 552.516 627.136 552.05C626.987 551.584 627.244 551.086 627.71 550.937C628.177 550.789 628.676 551.047 628.824 551.513C628.974 551.979 628.716 552.478 628.25 552.625Z" fill="white"/>
<path opacity="0.11" d="M616.57 612.151C616.104 612.299 615.605 612.041 615.456 611.575C615.306 611.109 615.563 610.611 616.03 610.463C616.496 610.315 616.995 610.573 617.145 611.039C617.293 611.505 617.036 612.004 616.57 612.151Z" fill="white"/>
<path opacity="0.11" d="M404.753 642.212C404.287 642.361 403.788 642.102 403.639 641.636C403.49 641.17 403.748 640.673 404.214 640.524C404.68 640.376 405.178 640.634 405.328 641.1C405.476 641.566 405.219 642.065 404.753 642.212Z" fill="white"/>
<path opacity="0.11" d="M324.519 734.682C324.053 734.831 323.554 734.572 323.406 734.106C323.257 733.64 323.514 733.143 323.98 732.994C324.447 732.846 324.946 733.104 325.094 733.57C325.243 734.036 324.986 734.535 324.519 734.682Z" fill="white"/>
<path opacity="0.11" d="M159.643 777.746C159.177 777.894 158.678 777.637 158.529 777.171C158.38 776.704 158.638 776.206 159.104 776.058C159.57 775.91 160.068 776.167 160.218 776.633C160.366 777.1 160.109 777.598 159.643 777.746Z" fill="white"/>
<path opacity="0.3" d="M542.03 585.587C541.564 585.734 541.065 585.477 540.917 585.011C540.767 584.544 541.024 584.046 541.49 583.898C541.956 583.75 542.456 584.007 542.604 584.474C542.754 584.94 542.497 585.438 542.03 585.587Z" fill="white"/>
<path d="M333.192 601.683C332.726 601.831 332.228 601.573 332.079 601.107C331.93 600.641 332.187 600.143 332.653 599.995C333.12 599.846 333.619 600.105 333.767 600.571C333.917 601.037 333.659 601.535 333.192 601.683Z" fill="white"/>
<path d="M202.574 641.312C202.108 641.46 201.609 641.202 201.459 640.736C201.31 640.27 201.567 639.771 202.034 639.624C202.5 639.475 202.999 639.734 203.148 640.2C203.297 640.666 203.04 641.163 202.574 641.312Z" fill="white"/>
<path d="M415.453 661.144C414.987 661.292 414.489 661.034 414.339 660.568C414.191 660.102 414.448 659.604 414.914 659.456C415.38 659.308 415.879 659.566 416.028 660.032C416.177 660.498 415.92 660.996 415.453 661.144Z" fill="white"/>
<path opacity="0.3" d="M474.58 642.365C474.113 642.512 473.615 642.255 473.466 641.788C473.317 641.322 473.574 640.824 474.04 640.676C474.507 640.527 475.006 640.785 475.154 641.251C475.304 641.718 475.046 642.216 474.58 642.365Z" fill="white"/>
<path opacity="0.11" d="M527.102 568.005C526.636 568.154 526.137 567.895 525.988 567.429C525.839 566.963 526.097 566.466 526.563 566.317C527.029 566.169 527.527 566.427 527.677 566.893C527.825 567.359 527.568 567.857 527.102 568.005Z" fill="white"/>
<path opacity="0.3" d="M324.457 626.791C323.991 626.939 323.492 626.681 323.343 626.215C323.193 625.749 323.45 625.251 323.917 625.103C324.383 624.954 324.882 625.213 325.032 625.679C325.18 626.145 324.923 626.643 324.457 626.791Z" fill="white"/>
<path opacity="0.3" d="M406.218 681.755C405.751 681.903 405.252 681.645 405.104 681.179C404.955 680.713 405.212 680.215 405.679 680.067C406.145 679.919 406.644 680.177 406.792 680.643C406.941 681.109 406.684 681.607 406.218 681.755Z" fill="white"/>
<path opacity="0.3" d="M511.118 657.736C510.651 657.884 510.153 657.627 510.004 657.161C509.855 656.694 510.112 656.196 510.578 656.047C511.045 655.9 511.544 656.157 511.692 656.623C511.842 657.09 511.585 657.588 511.118 657.736Z" fill="white"/>
<path opacity="0.3" d="M517.534 593.372C517.067 593.52 516.568 593.262 516.42 592.796C516.271 592.33 516.528 591.831 516.994 591.684C517.461 591.535 517.959 591.793 518.108 592.259C518.257 592.725 518 593.223 517.534 593.372Z" fill="white"/>
<path opacity="0.11" d="M116.279 679.883C115.813 680.032 115.314 679.774 115.165 679.307C115.016 678.841 115.273 678.344 115.739 678.195C116.205 678.047 116.704 678.305 116.854 678.771C117.002 679.237 116.745 679.736 116.279 679.883Z" fill="white"/>
<path opacity="0.11" d="M25.7631 786.778C25.2968 786.926 24.7981 786.668 24.6492 786.201C24.5002 785.735 24.7575 785.238 25.2237 785.089C25.69 784.942 26.1887 785.199 26.3377 785.665C26.4866 786.132 26.2295 786.63 25.7631 786.778Z" fill="white"/>
<path opacity="0.3" d="M241.898 726.501C240.965 726.797 239.967 726.281 239.669 725.348C239.37 724.415 239.886 723.417 240.819 723.121C241.752 722.825 242.75 723.34 243.049 724.274C243.347 725.207 242.832 726.204 241.898 726.501Z" fill="white"/>
<path opacity="0.11" d="M183.96 717.002C183.027 717.299 182.029 716.782 181.731 715.849C181.432 714.916 181.948 713.919 182.881 713.623C183.814 713.326 184.812 713.843 185.111 714.776C185.409 715.709 184.894 716.706 183.96 717.002Z" fill="white"/>
<path d="M174.939 687.307C174.238 687.528 173.49 687.142 173.267 686.442C173.043 685.743 173.429 684.994 174.128 684.773C174.829 684.55 175.577 684.937 175.801 685.637C176.024 686.336 175.638 687.084 174.939 687.307Z" fill="white"/>
<path d="M261.55 757.479C260.85 757.701 260.102 757.315 259.878 756.615C259.654 755.916 260.04 755.167 260.741 754.945C261.44 754.723 262.188 755.11 262.412 755.81C262.636 756.509 262.25 757.257 261.55 757.479Z" fill="white"/>
<path d="M530.117 674.961C529.417 675.183 528.668 674.795 528.444 674.096C528.221 673.396 528.607 672.649 529.307 672.427C530.007 672.204 530.755 672.592 530.978 673.291C531.202 673.991 530.816 674.738 530.117 674.961Z" fill="white"/>
<path d="M636.243 619.861C635.542 620.082 634.794 619.696 634.571 618.996C634.347 618.296 634.733 617.548 635.433 617.327C636.133 617.104 636.881 617.491 637.105 618.191C637.328 618.89 636.942 619.638 636.243 619.861Z" fill="white"/>
<path d="M639.808 581.515C639.108 581.737 638.359 581.35 638.136 580.65C637.912 579.951 638.299 579.203 638.998 578.981C639.698 578.758 640.447 579.145 640.671 579.845C640.894 580.545 640.507 581.292 639.808 581.515Z" fill="white"/>
<path d="M220.873 691.32C220.174 691.543 219.425 691.156 219.201 690.455C218.978 689.756 219.363 689.009 220.064 688.786C220.763 688.564 221.513 688.951 221.735 689.651C221.959 690.35 221.573 691.098 220.873 691.32Z" fill="white"/>
<path d="M387.809 707.139C387.109 707.361 386.361 706.974 386.137 706.274C385.914 705.575 386.299 704.827 387 704.605C387.7 704.383 388.448 704.769 388.671 705.469C388.895 706.169 388.509 706.917 387.809 707.139Z" fill="white"/>
<path d="M186.565 811.066C185.865 811.288 185.117 810.901 184.893 810.201C184.67 809.502 185.056 808.754 185.755 808.532C186.456 808.309 187.204 808.696 187.427 809.396C187.651 810.096 187.265 810.843 186.565 811.066Z" fill="white"/>
<path opacity="0.3" d="M105.528 710.276C104.594 710.572 103.595 710.055 103.297 709.122C103 708.189 103.514 707.193 104.447 706.896C105.381 706.599 106.379 707.115 106.677 708.048C106.975 708.982 106.461 709.979 105.528 710.276Z" fill="white"/>
<path d="M86.3703 650.315C85.437 650.611 84.4387 650.095 84.1405 649.162C83.8423 648.228 84.3573 647.232 85.2907 646.935C86.224 646.639 87.2223 647.154 87.5205 648.088C87.8186 649.021 87.3037 650.018 86.3703 650.315Z" fill="white"/>
<path d="M67.9548 742.682C67.255 742.904 66.5065 742.518 66.2829 741.818C66.0594 741.118 66.4455 740.37 67.1453 740.148C67.845 739.926 68.5935 740.313 68.8171 741.013C69.0407 741.712 68.6546 742.46 67.9548 742.682Z" fill="white"/>
<path opacity="0.3" d="M16.4699 722.75C15.5366 723.046 14.5382 722.53 14.2401 721.597C13.942 720.664 14.4569 719.666 15.3902 719.37C16.3236 719.074 17.3219 719.589 17.62 720.523C17.9182 721.456 17.4033 722.453 16.4699 722.75Z" fill="white"/>
<path opacity="0.3" d="M51.3672 779.581C50.4338 779.878 49.4355 779.361 49.1373 778.428C48.8392 777.495 49.3541 776.498 50.2875 776.202C51.2208 775.905 52.2191 776.422 52.5173 777.355C52.8155 778.288 52.3006 779.285 51.3672 779.581Z" fill="white"/>
<path opacity="0.3" d="M540.786 639.937C539.853 640.233 538.854 639.718 538.557 638.784C538.259 637.851 538.773 636.854 539.706 636.558C540.64 636.261 541.639 636.777 541.937 637.71C542.234 638.644 541.72 639.641 540.786 639.937Z" fill="white"/>
<path opacity="0.3" d="M594.364 571.755C593.431 572.051 592.433 571.535 592.134 570.602C591.836 569.669 592.351 568.672 593.285 568.375C594.218 568.078 595.216 568.595 595.514 569.528C595.813 570.461 595.297 571.458 594.364 571.755Z" fill="white"/>
<path opacity="0.3" d="M464.41 581.402C463.476 581.698 462.478 581.182 462.18 580.249C461.882 579.316 462.396 578.319 463.329 578.022C464.263 577.726 465.262 578.242 465.56 579.175C465.857 580.108 465.343 581.105 464.41 581.402Z" fill="white"/>
<path opacity="0.11" d="M481.812 557.273C480.879 557.569 479.881 557.053 479.583 556.12C479.284 555.186 479.8 554.19 480.733 553.893C481.667 553.597 482.665 554.112 482.963 555.046C483.261 555.98 482.746 556.976 481.812 557.273Z" fill="white"/>
<path opacity="0.3" d="M505.838 609.175C504.904 609.471 503.905 608.955 503.607 608.022C503.31 607.088 503.824 606.092 504.757 605.795C505.691 605.499 506.69 606.015 506.987 606.949C507.285 607.882 506.771 608.878 505.838 609.175Z" fill="white"/>
<path d="M452.784 625.101C452.084 625.323 451.335 624.937 451.112 624.237C450.888 623.538 451.275 622.789 451.975 622.567C452.674 622.345 453.423 622.732 453.647 623.432C453.87 624.131 453.483 624.879 452.784 625.101Z" fill="white"/>
<path opacity="0.11" d="M1298.99 709.692C1297.88 710.047 1296.68 709.428 1296.32 708.307C1295.96 707.186 1296.58 705.988 1297.7 705.632C1298.82 705.276 1300.02 705.896 1300.38 707.017C1300.74 708.138 1300.11 709.336 1298.99 709.692Z" fill="white"/>
<path d="M1295.98 722.927C1295.14 723.194 1294.24 722.729 1293.97 721.889C1293.7 721.049 1294.17 720.15 1295.01 719.884C1295.85 719.617 1296.75 720.082 1297.02 720.922C1297.28 721.762 1296.82 722.66 1295.98 722.927Z" fill="white"/>
<path d="M1255.7 712.271C1254.86 712.539 1253.96 712.073 1253.69 711.233C1253.41 710.392 1253.88 709.495 1254.72 709.228C1255.56 708.961 1256.46 709.426 1256.73 710.267C1256.99 711.107 1256.53 712.004 1255.7 712.271Z" fill="white"/>
<path d="M1341.26 682.848C1340.43 683.116 1339.53 682.651 1339.26 681.809C1338.99 680.969 1339.45 680.072 1340.29 679.805C1341.13 679.538 1342.04 680.003 1342.3 680.843C1342.57 681.684 1342.1 682.581 1341.26 682.848Z" fill="white"/>
<path opacity="0.11" d="M1399.26 691.245C1398.15 691.601 1396.94 690.981 1396.58 689.86C1396.23 688.74 1396.85 687.542 1397.97 687.186C1399.09 686.83 1400.28 687.449 1400.64 688.57C1401.01 689.691 1400.38 690.889 1399.26 691.245Z" fill="white"/>
<path d="M1411.4 662.807C1410.84 662.985 1410.25 662.676 1410.07 662.116C1409.89 661.556 1410.2 660.957 1410.76 660.779C1411.32 660.602 1411.92 660.912 1412.1 661.472C1412.28 662.032 1411.97 662.629 1411.4 662.807Z" fill="white"/>
<path d="M1314.69 748.274C1314.12 748.451 1313.53 748.142 1313.35 747.582C1313.17 747.022 1313.48 746.424 1314.04 746.246C1314.6 746.068 1315.2 746.378 1315.38 746.937C1315.56 747.497 1315.25 748.096 1314.69 748.274Z" fill="white"/>
<path d="M1093.54 818.526C1092.97 818.703 1092.37 818.394 1092.19 817.834C1092.01 817.274 1092.33 816.676 1092.88 816.498C1093.45 816.32 1094.04 816.629 1094.22 817.189C1094.4 817.75 1094.09 818.348 1093.54 818.526Z" fill="white"/>
<path d="M965.456 798.864C964.896 799.041 964.296 798.732 964.118 798.172C963.939 797.611 964.248 797.014 964.808 796.836C965.368 796.658 965.967 796.967 966.146 797.527C966.325 798.087 966.016 798.686 965.456 798.864Z" fill="white"/>
<path d="M949.55 885.48C948.99 885.657 948.391 885.347 948.212 884.787C948.033 884.227 948.342 883.629 948.902 883.451C949.462 883.273 950.061 883.583 950.24 884.143C950.418 884.703 950.11 885.302 949.55 885.48Z" fill="white"/>
<path opacity="0.11" d="M1424.75 673.091C1424.2 673.269 1423.59 672.959 1423.42 672.399C1423.24 671.839 1423.55 671.241 1424.11 671.063C1424.66 670.885 1425.27 671.195 1425.45 671.755C1425.62 672.315 1425.32 672.913 1424.75 673.091Z" fill="white"/>
<path opacity="0.11" d="M1328.37 784.155C1327.82 784.333 1327.21 784.024 1327.04 783.463C1326.86 782.903 1327.16 782.306 1327.73 782.128C1328.29 781.95 1328.89 782.259 1329.06 782.819C1329.24 783.379 1328.94 783.978 1328.37 784.155Z" fill="white"/>
<path opacity="0.11" d="M1130.36 835.874C1129.81 836.052 1129.21 835.741 1129.03 835.182C1128.85 834.622 1129.16 834.024 1129.72 833.846C1130.28 833.669 1130.88 833.978 1131.06 834.538C1131.24 835.097 1130.93 835.696 1130.36 835.874Z" fill="white"/>
<path d="M1338.8 624.413C1338.24 624.591 1337.64 624.282 1337.46 623.722C1337.29 623.162 1337.59 622.563 1338.16 622.386C1338.71 622.208 1339.31 622.517 1339.49 623.077C1339.67 623.637 1339.36 624.235 1338.8 624.413Z" fill="white"/>
<path d="M1181.93 672.008C1181.37 672.185 1180.78 671.876 1180.59 671.316C1180.41 670.756 1180.73 670.158 1181.28 669.98C1181.85 669.802 1182.44 670.111 1182.62 670.671C1182.8 671.231 1182.49 671.83 1181.93 672.008Z" fill="white"/>
<path opacity="0.3" d="M1328.31 654.565C1327.76 654.742 1327.15 654.433 1326.98 653.873C1326.8 653.314 1327.1 652.715 1327.67 652.537C1328.22 652.36 1328.83 652.669 1329 653.229C1329.18 653.789 1328.88 654.387 1328.31 654.565Z" fill="white"/>
<path opacity="0.3" d="M928.255 811.799C927.695 811.977 927.096 811.667 926.917 811.107C926.738 810.547 927.047 809.949 927.607 809.771C928.167 809.594 928.766 809.903 928.945 810.463C929.124 811.022 928.815 811.621 928.255 811.799Z" fill="white"/>
<path opacity="0.11" d="M1078.29 718.338C1077.73 718.516 1077.13 718.205 1076.95 717.646C1076.78 717.086 1077.08 716.487 1077.64 716.309C1078.2 716.132 1078.81 716.442 1078.98 717.002C1079.16 717.561 1078.84 718.159 1078.29 718.338Z" fill="white"/>
<path opacity="0.11" d="M969.578 846.72C969.018 846.898 968.419 846.588 968.24 846.029C968.061 845.469 968.371 844.87 968.931 844.692C969.491 844.515 970.089 844.825 970.269 845.385C970.448 845.944 970.138 846.542 969.578 846.72Z" fill="white"/>
<path opacity="0.3" d="M1229.15 774.325C1228.03 774.681 1226.83 774.061 1226.48 772.94C1226.11 771.82 1226.74 770.622 1227.85 770.266C1228.97 769.91 1230.18 770.53 1230.54 771.651C1230.89 772.772 1230.28 773.969 1229.15 774.325Z" fill="white"/>
<path opacity="0.11" d="M1159.57 762.91C1158.45 763.266 1157.26 762.646 1156.89 761.525C1156.54 760.404 1157.16 759.206 1158.28 758.85C1159.39 758.495 1160.6 759.114 1160.96 760.235C1161.31 761.356 1160.69 762.554 1159.57 762.91Z" fill="white"/>
<path d="M1148.74 727.25C1147.9 727.517 1147 727.053 1146.73 726.212C1146.46 725.372 1146.93 724.474 1147.77 724.207C1148.61 723.94 1149.51 724.405 1149.78 725.245C1150.04 726.086 1149.58 726.983 1148.74 727.25Z" fill="white"/>
<path d="M1252.76 811.528C1251.92 811.795 1251.02 811.33 1250.75 810.49C1250.48 809.65 1250.95 808.752 1251.79 808.485C1252.63 808.218 1253.53 808.682 1253.8 809.523C1254.06 810.363 1253.6 811.261 1252.76 811.528Z" fill="white"/>
<path d="M1203.91 732.078C1203.07 732.344 1202.17 731.88 1201.9 731.039C1201.63 730.199 1202.09 729.302 1202.93 729.034C1203.77 728.767 1204.67 729.232 1204.94 730.072C1205.21 730.912 1204.75 731.811 1203.91 732.078Z" fill="white"/>
<path d="M1404.41 751.071C1403.57 751.338 1402.67 750.873 1402.4 750.033C1402.13 749.192 1402.6 748.295 1403.44 748.028C1404.28 747.761 1405.18 748.226 1405.45 749.066C1405.72 749.907 1405.25 750.804 1404.41 751.071Z" fill="white"/>
<path d="M1162.7 875.888C1161.86 876.155 1160.96 875.69 1160.69 874.85C1160.42 874.009 1160.89 873.112 1161.73 872.844C1162.57 872.578 1163.47 873.042 1163.74 873.883C1164.01 874.723 1163.54 875.621 1162.7 875.888Z" fill="white"/>
<path d="M871.839 892.292C870.998 892.559 870.1 892.094 869.83 891.254C869.562 890.414 870.026 889.516 870.866 889.249C871.707 888.982 872.606 889.447 872.875 890.287C873.143 891.127 872.679 892.026 871.839 892.292Z" fill="white"/>
<path d="M829.661 844.233C828.821 844.5 827.922 844.035 827.654 843.195C827.386 842.354 827.849 841.457 828.69 841.189C829.53 840.922 830.429 841.387 830.697 842.228C830.965 843.068 830.502 843.966 829.661 844.233Z" fill="white"/>
<path opacity="0.3" d="M1065.37 754.842C1064.25 755.198 1063.05 754.579 1062.69 753.458C1062.33 752.337 1062.95 751.139 1064.07 750.783C1065.19 750.427 1066.4 751.047 1066.75 752.169C1067.11 753.289 1066.49 754.487 1065.37 754.842Z" fill="white"/>
<path d="M1042.36 682.822C1041.24 683.178 1040.04 682.559 1039.68 681.437C1039.33 680.316 1039.94 679.119 1041.07 678.763C1042.19 678.407 1043.38 679.027 1043.74 680.148C1044.1 681.268 1043.48 682.465 1042.36 682.822Z" fill="white"/>
<path d="M1020.25 793.76C1019.41 794.027 1018.51 793.562 1018.24 792.722C1017.97 791.882 1018.44 790.983 1019.28 790.717C1020.12 790.45 1021.02 790.915 1021.29 791.755C1021.56 792.595 1021.09 793.493 1020.25 793.76Z" fill="white"/>
<path opacity="0.3" d="M958.408 769.829C957.287 770.185 956.088 769.565 955.73 768.444C955.371 767.323 955.99 766.126 957.111 765.77C958.232 765.414 959.431 766.034 959.789 767.155C960.147 768.276 959.529 769.473 958.408 769.829Z" fill="white"/>
<path opacity="0.3" d="M880.986 873.743C879.865 874.099 878.665 873.48 878.307 872.359C877.949 871.238 878.567 870.04 879.688 869.684C880.81 869.328 882.009 869.948 882.367 871.069C882.725 872.189 882.107 873.387 880.986 873.743Z" fill="white"/>
<path opacity="0.3" d="M1000.33 838.068C999.214 838.424 998.007 837.803 997.651 836.682C997.295 835.561 997.908 834.364 999.036 834.008C1000.15 833.653 1001.35 834.272 1001.71 835.393C1002.07 836.514 1001.45 837.711 1000.33 838.068Z" fill="white"/>
<path opacity="0.11" d="M912.86 830.094C911.739 830.45 910.54 829.83 910.182 828.71C909.824 827.588 910.442 826.391 911.563 826.035C912.684 825.679 913.883 826.299 914.241 827.419C914.6 828.54 913.981 829.738 912.86 830.094Z" fill="white"/>
<path opacity="0.11" d="M849.21 511.344C848.089 511.7 846.891 511.08 846.532 509.959C846.174 508.838 846.793 507.641 847.914 507.284C849.035 506.929 850.234 507.549 850.591 508.67C850.949 509.791 850.331 510.988 849.21 511.344Z" fill="white"/>
<path d="M846.181 524.598C845.34 524.865 844.441 524.4 844.172 523.56C843.904 522.72 844.367 521.821 845.208 521.554C846.048 521.288 846.948 521.752 847.216 522.593C847.485 523.433 847.021 524.33 846.181 524.598Z" fill="white"/>
<path d="M805.893 513.936C805.052 514.204 804.154 513.738 803.885 512.897C803.616 512.057 804.08 511.16 804.921 510.893C805.762 510.626 806.66 511.091 806.929 511.931C807.197 512.772 806.733 513.669 805.893 513.936Z" fill="white"/>
<path d="M891.477 484.515C890.637 484.783 889.737 484.317 889.469 483.477C889.201 482.637 889.664 481.739 890.505 481.473C891.345 481.206 892.245 481.671 892.513 482.511C892.782 483.351 892.318 484.249 891.477 484.515Z" fill="white"/>
<path opacity="0.11" d="M949.475 492.909C948.354 493.265 947.155 492.645 946.797 491.524C946.439 490.404 947.057 489.205 948.178 488.85C949.299 488.494 950.498 489.113 950.857 490.234C951.215 491.355 950.596 492.553 949.475 492.909Z" fill="white"/>
<path d="M961.614 464.468C961.054 464.645 960.455 464.336 960.276 463.777C960.097 463.217 960.406 462.618 960.966 462.44C961.526 462.263 962.125 462.573 962.303 463.132C962.482 463.692 962.174 464.29 961.614 464.468Z" fill="white"/>
<path d="M864.899 549.938C864.339 550.115 863.741 549.805 863.562 549.245C863.382 548.685 863.692 548.088 864.252 547.91C864.812 547.732 865.411 548.041 865.59 548.601C865.769 549.161 865.459 549.76 864.899 549.938Z" fill="white"/>
<path d="M643.746 620.187C643.186 620.364 642.586 620.055 642.408 619.495C642.229 618.935 642.537 618.337 643.097 618.159C643.657 617.981 644.256 618.291 644.435 618.851C644.614 619.411 644.306 620.009 643.746 620.187Z" fill="white"/>
<path d="M515.672 600.524C515.112 600.702 514.512 600.393 514.334 599.833C514.155 599.272 514.464 598.675 515.024 598.497C515.584 598.319 516.182 598.628 516.361 599.188C516.541 599.748 516.232 600.347 515.672 600.524Z" fill="white"/>
<path d="M499.762 687.147C499.202 687.325 498.602 687.015 498.424 686.455C498.245 685.895 498.554 685.297 499.114 685.119C499.674 684.941 500.272 685.251 500.451 685.811C500.63 686.371 500.322 686.969 499.762 687.147Z" fill="white"/>
<path d="M1194.61 417.28C1194.04 417.458 1193.45 417.148 1193.27 416.588C1193.09 416.028 1193.4 415.431 1193.96 415.253C1194.52 415.075 1195.11 415.384 1195.29 415.944C1195.48 416.504 1195.16 417.103 1194.61 417.28Z" fill="white"/>
<path opacity="0.11" d="M1192.31 357.677C1191.75 357.855 1191.16 357.546 1190.98 356.986C1190.8 356.426 1191.11 355.827 1191.67 355.65C1192.22 355.472 1192.83 355.781 1193.01 356.341C1193.18 356.901 1192.88 357.499 1192.31 357.677Z" fill="white"/>
<path opacity="0.11" d="M1243.39 367.151C1242.83 367.329 1242.23 367.02 1242.05 366.46C1241.87 365.899 1242.18 365.302 1242.75 365.124C1243.3 364.946 1243.9 365.255 1244.08 365.815C1244.26 366.375 1243.95 366.973 1243.39 367.151Z" fill="white"/>
<path opacity="0.11" d="M1229.36 438.647C1228.79 438.825 1228.2 438.515 1228.02 437.955C1227.84 437.395 1228.15 436.797 1228.71 436.62C1229.27 436.442 1229.87 436.751 1230.05 437.311C1230.23 437.871 1229.92 438.469 1229.36 438.647Z" fill="white"/>
<path opacity="0.11" d="M974.961 474.748C974.401 474.926 973.802 474.616 973.624 474.056C973.445 473.496 973.753 472.898 974.313 472.72C974.873 472.542 975.472 472.852 975.651 473.412C975.83 473.972 975.521 474.571 974.961 474.748Z" fill="white"/>
<path opacity="0.11" d="M878.587 585.82C878.027 585.998 877.429 585.689 877.25 585.128C877.07 584.568 877.38 583.971 877.94 583.793C878.5 583.615 879.099 583.924 879.278 584.484C879.457 585.044 879.147 585.642 878.587 585.82Z" fill="white"/>
<path opacity="0.11" d="M680.576 637.531C680.016 637.709 679.417 637.4 679.238 636.84C679.059 636.279 679.368 635.681 679.928 635.503C680.488 635.326 681.087 635.635 681.266 636.195C681.445 636.755 681.136 637.353 680.576 637.531Z" fill="white"/>
<path opacity="0.3" d="M1139.83 406.745C1139.27 406.924 1138.68 406.614 1138.5 406.054C1138.32 405.494 1138.63 404.895 1139.19 404.717C1139.74 404.54 1140.35 404.85 1140.53 405.41C1140.7 405.97 1140.4 406.567 1139.83 406.745Z" fill="white"/>
<path d="M889.016 426.078C888.456 426.256 887.857 425.947 887.678 425.387C887.499 424.826 887.809 424.228 888.369 424.05C888.929 423.873 889.527 424.182 889.707 424.742C889.886 425.302 889.576 425.9 889.016 426.078Z" fill="white"/>
<path d="M732.144 473.67C731.584 473.848 730.984 473.539 730.805 472.979C730.627 472.419 730.936 471.821 731.496 471.643C732.056 471.465 732.655 471.774 732.834 472.334C733.013 472.894 732.704 473.493 732.144 473.67Z" fill="white"/>
<path d="M987.812 497.489C987.252 497.666 986.654 497.356 986.475 496.797C986.296 496.237 986.604 495.639 987.164 495.461C987.724 495.283 988.324 495.593 988.502 496.152C988.681 496.712 988.372 497.311 987.812 497.489Z" fill="white"/>
<path opacity="0.3" d="M1058.83 474.932C1058.26 475.11 1057.67 474.8 1057.49 474.24C1057.31 473.68 1057.62 473.081 1058.18 472.903C1058.74 472.726 1059.34 473.036 1059.52 473.596C1059.7 474.156 1059.39 474.754 1058.83 474.932Z" fill="white"/>
<path opacity="0.11" d="M1121.9 385.631C1121.35 385.809 1120.75 385.499 1120.57 384.939C1120.39 384.379 1120.7 383.781 1121.26 383.604C1121.82 383.425 1122.42 383.735 1122.6 384.295C1122.78 384.855 1122.47 385.453 1121.9 385.631Z" fill="white"/>
<path opacity="0.3" d="M878.529 456.228C877.969 456.405 877.369 456.096 877.191 455.536C877.012 454.976 877.321 454.378 877.881 454.2C878.441 454.022 879.039 454.332 879.218 454.892C879.397 455.452 879.089 456.05 878.529 456.228Z" fill="white"/>
<path opacity="0.3" d="M976.72 522.243C976.16 522.421 975.561 522.111 975.382 521.551C975.203 520.991 975.512 520.393 976.072 520.215C976.632 520.037 977.231 520.347 977.41 520.907C977.588 521.467 977.28 522.066 976.72 522.243Z" fill="white"/>
<path opacity="0.3" d="M1102.71 493.397C1102.16 493.575 1101.55 493.265 1101.37 492.705C1101.2 492.145 1101.5 491.546 1102.07 491.369C1102.62 491.191 1103.22 491.501 1103.4 492.061C1103.58 492.621 1103.27 493.218 1102.71 493.397Z" fill="white"/>
<path opacity="0.3" d="M1110.42 416.099C1109.85 416.277 1109.25 415.967 1109.07 415.407C1108.89 414.847 1109.21 414.248 1109.76 414.071C1110.33 413.893 1110.92 414.203 1111.1 414.763C1111.28 415.323 1110.97 415.921 1110.42 416.099Z" fill="white"/>
<path opacity="0.3" d="M478.462 613.466C477.902 613.643 477.302 613.333 477.124 612.773C476.945 612.213 477.254 611.616 477.814 611.438C478.374 611.26 478.973 611.569 479.151 612.129C479.331 612.689 479.022 613.288 478.462 613.466Z" fill="white"/>
<path opacity="0.11" d="M628.5 519.994C627.94 520.172 627.342 519.862 627.163 519.302C626.984 518.742 627.292 518.143 627.852 517.965C628.412 517.788 629.012 518.098 629.19 518.658C629.369 519.218 629.06 519.816 628.5 519.994Z" fill="white"/>
<path opacity="0.11" d="M519.782 648.377C519.222 648.555 518.624 648.245 518.444 647.686C518.265 647.126 518.574 646.527 519.134 646.349C519.694 646.172 520.294 646.482 520.473 647.042C520.651 647.601 520.342 648.199 519.782 648.377Z" fill="white"/>
<path opacity="0.3" d="M779.361 575.99C778.24 576.346 777.041 575.726 776.683 574.605C776.325 573.484 776.943 572.287 778.064 571.93C779.185 571.575 780.384 572.195 780.742 573.316C781.101 574.437 780.482 575.634 779.361 575.99Z" fill="white"/>
<path opacity="0.11" d="M709.787 564.575C708.666 564.93 707.467 564.311 707.109 563.19C706.751 562.069 707.37 560.871 708.491 560.515C709.612 560.159 710.81 560.779 711.168 561.9C711.526 563.021 710.908 564.219 709.787 564.575Z" fill="white"/>
<path d="M698.943 528.912C698.102 529.178 697.202 528.714 696.934 527.873C696.666 527.033 697.129 526.135 697.97 525.868C698.81 525.601 699.709 526.066 699.977 526.906C700.247 527.746 699.783 528.644 698.943 528.912Z" fill="white"/>
<path d="M802.971 613.188C802.13 613.455 801.232 612.99 800.963 612.15C800.695 611.31 801.159 610.412 801.999 610.145C802.84 609.878 803.738 610.342 804.006 611.183C804.275 612.023 803.811 612.921 802.971 613.188Z" fill="white"/>
<path d="M472.656 740.452C471.816 740.719 470.916 740.254 470.648 739.414C470.38 738.574 470.843 737.675 471.684 737.409C472.524 737.142 473.424 737.607 473.692 738.447C473.961 739.287 473.497 740.185 472.656 740.452Z" fill="white"/>
<path d="M1125.53 514.083C1124.69 514.35 1123.78 513.885 1123.52 513.045C1123.25 512.205 1123.72 511.306 1124.56 511.039C1125.4 510.773 1126.3 511.237 1126.57 512.078C1126.83 512.918 1126.37 513.816 1125.53 514.083Z" fill="white"/>
<path d="M1252.99 447.903C1252.14 448.17 1251.24 447.705 1250.98 446.865C1250.71 446.025 1251.18 445.127 1252.02 444.861C1252.86 444.594 1253.76 445.059 1254.02 445.899C1254.29 446.739 1253.83 447.637 1252.99 447.903Z" fill="white"/>
<path d="M1257.27 401.848C1256.43 402.115 1255.53 401.65 1255.26 400.809C1254.99 399.969 1255.46 399.071 1256.3 398.804C1257.14 398.537 1258.04 399.002 1258.31 399.842C1258.58 400.683 1258.11 401.581 1257.27 401.848Z" fill="white"/>
<path d="M754.115 533.737C753.274 534.003 752.375 533.539 752.106 532.698C751.838 531.858 752.302 530.961 753.142 530.693C753.983 530.426 754.882 530.891 755.151 531.731C755.419 532.571 754.955 533.47 754.115 533.737Z" fill="white"/>
<path d="M954.61 552.732C953.77 552.999 952.871 552.534 952.603 551.693C952.334 550.853 952.798 549.956 953.638 549.689C954.479 549.422 955.377 549.887 955.646 550.727C955.914 551.568 955.45 552.465 954.61 552.732Z" fill="white"/>
<path d="M712.909 677.549C712.068 677.816 711.169 677.351 710.9 676.511C710.632 675.67 711.096 674.773 711.936 674.505C712.777 674.239 713.676 674.703 713.945 675.544C714.213 676.384 713.749 677.282 712.909 677.549Z" fill="white"/>
<path d="M422.041 693.952C421.201 694.219 420.302 693.754 420.033 692.914C419.764 692.074 420.228 691.176 421.068 690.908C421.909 690.642 422.809 691.106 423.077 691.947C423.345 692.787 422.882 693.685 422.041 693.952Z" fill="white"/>
<path d="M379.873 645.902C379.033 646.169 378.134 645.704 377.866 644.863C377.596 644.023 378.06 643.125 378.9 642.858C379.742 642.591 380.64 643.056 380.909 643.896C381.177 644.737 380.713 645.635 379.873 645.902Z" fill="white"/>
<path opacity="0.3" d="M615.571 556.507C614.45 556.863 613.25 556.243 612.892 555.123C612.534 554.002 613.152 552.804 614.273 552.448C615.394 552.092 616.594 552.712 616.952 553.833C617.31 554.954 616.692 556.151 615.571 556.507Z" fill="white"/>
<path d="M592.569 484.485C591.448 484.841 590.249 484.221 589.891 483.1C589.533 481.979 590.151 480.782 591.272 480.426C592.393 480.07 593.592 480.69 593.95 481.81C594.308 482.931 593.689 484.129 592.569 484.485Z" fill="white"/>
<path d="M570.454 595.42C569.614 595.687 568.715 595.222 568.447 594.382C568.177 593.542 568.641 592.643 569.483 592.377C570.323 592.11 571.222 592.574 571.49 593.415C571.758 594.255 571.295 595.152 570.454 595.42Z" fill="white"/>
<path opacity="0.3" d="M508.616 571.489C507.495 571.845 506.297 571.225 505.939 570.104C505.58 568.983 506.199 567.786 507.32 567.43C508.441 567.074 509.64 567.694 509.997 568.815C510.355 569.936 509.737 571.133 508.616 571.489Z" fill="white"/>
<path opacity="0.3" d="M431.206 675.403C430.085 675.759 428.886 675.14 428.528 674.019C428.17 672.898 428.788 671.7 429.909 671.344C431.03 670.988 432.229 671.608 432.588 672.729C432.946 673.849 432.327 675.047 431.206 675.403Z" fill="white"/>
<path opacity="0.3" d="M550.537 639.729C549.416 640.084 548.217 639.464 547.858 638.343C547.5 637.222 548.119 636.025 549.24 635.669C550.361 635.313 551.56 635.933 551.918 637.054C552.276 638.175 551.658 639.372 550.537 639.729Z" fill="white"/>
<path opacity="0.3" d="M1138.35 472.023C1137.22 472.379 1136.02 471.76 1135.67 470.638C1135.31 469.517 1135.93 468.32 1137.05 467.964C1138.17 467.608 1139.37 468.228 1139.72 469.349C1140.09 470.47 1139.47 471.668 1138.35 472.023Z" fill="white"/>
<path opacity="0.3" d="M1202.7 390.127C1201.57 390.483 1200.38 389.863 1200.02 388.742C1199.66 387.622 1200.28 386.424 1201.41 386.068C1202.52 385.712 1203.72 386.331 1204.08 387.452C1204.44 388.573 1203.82 389.771 1202.7 390.127Z" fill="white"/>
<path opacity="0.11" d="M463.069 631.764C461.948 632.12 460.749 631.5 460.391 630.378C460.033 629.257 460.651 628.06 461.772 627.705C462.893 627.349 464.092 627.968 464.45 629.089C464.809 630.21 464.19 631.408 463.069 631.764Z" fill="white"/>
<path opacity="0.3" d="M1046.61 401.719C1045.49 402.075 1044.29 401.455 1043.94 400.334C1043.57 399.213 1044.19 398.016 1045.31 397.66C1046.43 397.304 1047.64 397.924 1047.99 399.045C1048.35 400.166 1047.74 401.363 1046.61 401.719Z" fill="white"/>
<path opacity="0.11" d="M1067.52 372.731C1066.4 373.087 1065.2 372.466 1064.84 371.345C1064.49 370.225 1065.1 369.028 1066.22 368.672C1067.35 368.316 1068.54 368.935 1068.9 370.056C1069.26 371.177 1068.64 372.374 1067.52 372.731Z" fill="white"/>
<path opacity="0.3" d="M1096.37 435.082C1095.25 435.437 1094.04 434.818 1093.69 433.697C1093.33 432.576 1093.95 431.379 1095.07 431.022C1096.19 430.666 1097.39 431.287 1097.75 432.408C1098.11 433.529 1097.49 434.726 1096.37 435.082Z" fill="white"/>
<path d="M1032.65 454.2C1031.81 454.467 1030.91 454.002 1030.64 453.161C1030.37 452.321 1030.83 451.424 1031.67 451.156C1032.51 450.889 1033.41 451.354 1033.68 452.194C1033.94 453.035 1033.49 453.933 1032.65 454.2Z" fill="white"/>
<path opacity="0.11" d="M366.554 839.714C365.432 840.07 364.233 839.45 363.875 838.329C363.517 837.208 364.135 836.011 365.256 835.654C366.377 835.299 367.577 835.919 367.935 837.04C368.293 838.161 367.675 839.358 366.554 839.714Z" fill="white"/>
<path d="M363.529 852.963C362.688 853.23 361.789 852.765 361.521 851.925C361.252 851.085 361.716 850.186 362.556 849.919C363.397 849.653 364.296 850.117 364.565 850.958C364.833 851.798 364.369 852.696 363.529 852.963Z" fill="white"/>
<path d="M323.249 842.301C322.409 842.569 321.509 842.104 321.241 841.263C320.972 840.422 321.436 839.525 322.276 839.258C323.117 838.991 324.015 839.456 324.285 840.296C324.553 841.137 324.089 842.034 323.249 842.301Z" fill="white"/>
<path d="M408.825 812.875C407.984 813.142 407.086 812.677 406.817 811.836C406.549 810.996 407.013 810.098 407.853 809.831C408.694 809.564 409.592 810.029 409.86 810.869C410.129 811.71 409.665 812.607 408.825 812.875Z" fill="white"/>
<path opacity="0.11" d="M466.82 821.27C465.699 821.626 464.5 821.006 464.142 819.886C463.784 818.765 464.402 817.567 465.523 817.211C466.644 816.855 467.843 817.475 468.201 818.595C468.56 819.717 467.941 820.914 466.82 821.27Z" fill="white"/>
<path d="M478.97 792.834C478.41 793.013 477.811 792.702 477.632 792.143C477.453 791.583 477.762 790.984 478.322 790.806C478.882 790.629 479.481 790.939 479.66 791.499C479.838 792.058 479.53 792.656 478.97 792.834Z" fill="white"/>
<path d="M382.243 878.297C381.683 878.475 381.083 878.166 380.905 877.606C380.726 877.046 381.035 876.447 381.595 876.269C382.155 876.092 382.754 876.401 382.933 876.961C383.112 877.52 382.803 878.119 382.243 878.297Z" fill="white"/>
<path d="M711.955 745.646C711.394 745.824 710.795 745.515 710.617 744.955C710.438 744.395 710.746 743.797 711.306 743.619C711.866 743.441 712.465 743.75 712.644 744.31C712.823 744.87 712.515 745.469 711.955 745.646Z" fill="white"/>
<path opacity="0.11" d="M709.67 686.039C709.11 686.217 708.511 685.908 708.332 685.348C708.154 684.788 708.462 684.19 709.022 684.012C709.582 683.834 710.181 684.144 710.36 684.704C710.539 685.264 710.23 685.861 709.67 686.039Z" fill="white"/>
<path opacity="0.11" d="M760.739 695.521C760.179 695.699 759.58 695.39 759.401 694.83C759.222 694.27 759.532 693.672 760.092 693.494C760.652 693.316 761.251 693.625 761.43 694.185C761.609 694.745 761.299 695.343 760.739 695.521Z" fill="white"/>
<path opacity="0.11" d="M746.71 767.014C746.15 767.192 745.55 766.882 745.372 766.322C745.193 765.762 745.502 765.164 746.062 764.987C746.622 764.809 747.22 765.118 747.4 765.678C747.579 766.238 747.27 766.836 746.71 767.014Z" fill="white"/>
<path opacity="0.11" d="M492.307 803.116C491.747 803.294 491.148 802.984 490.969 802.424C490.791 801.864 491.1 801.266 491.66 801.088C492.22 800.91 492.819 801.22 492.998 801.78C493.177 802.34 492.867 802.939 492.307 803.116Z" fill="white"/>
<path opacity="0.3" d="M657.187 735.108C656.627 735.286 656.028 734.976 655.85 734.416C655.671 733.856 655.979 733.257 656.539 733.08C657.099 732.902 657.698 733.212 657.877 733.772C658.056 734.332 657.748 734.93 657.187 735.108Z" fill="white"/>
<path d="M406.365 754.44C405.805 754.618 405.205 754.309 405.026 753.749C404.848 753.189 405.157 752.59 405.717 752.413C406.277 752.235 406.875 752.545 407.054 753.105C407.233 753.665 406.925 754.262 406.365 754.44Z" fill="white"/>
<path d="M249.487 802.038C248.927 802.215 248.328 801.906 248.149 801.346C247.97 800.786 248.279 800.188 248.839 800.01C249.399 799.832 249.999 800.141 250.177 800.702C250.356 801.262 250.047 801.86 249.487 802.038Z" fill="white"/>
<path d="M505.16 825.854C504.6 826.032 504.001 825.722 503.822 825.162C503.643 824.602 503.952 824.004 504.512 823.826C505.072 823.649 505.672 823.958 505.851 824.518C506.03 825.078 505.72 825.676 505.16 825.854Z" fill="white"/>
<path opacity="0.3" d="M576.175 803.298C575.615 803.476 575.016 803.166 574.837 802.606C574.658 802.046 574.968 801.448 575.528 801.27C576.088 801.092 576.687 801.402 576.866 801.962C577.044 802.522 576.735 803.12 576.175 803.298Z" fill="white"/>
<path opacity="0.11" d="M639.256 713.993C638.696 714.171 638.097 713.861 637.918 713.301C637.739 712.741 638.048 712.144 638.608 711.966C639.168 711.788 639.767 712.097 639.946 712.657C640.125 713.217 639.816 713.815 639.256 713.993Z" fill="white"/>
<path opacity="0.3" d="M395.872 784.596C395.311 784.774 394.713 784.464 394.534 783.904C394.355 783.345 394.663 782.746 395.223 782.568C395.783 782.39 396.383 782.7 396.562 783.26C396.74 783.82 396.432 784.418 395.872 784.596Z" fill="white"/>
<path opacity="0.3" d="M494.07 850.609C493.51 850.787 492.912 850.477 492.732 849.917C492.553 849.357 492.863 848.76 493.423 848.581C493.983 848.403 494.582 848.713 494.761 849.273C494.94 849.833 494.63 850.432 494.07 850.609Z" fill="white"/>
<path opacity="0.3" d="M620.059 821.762C619.499 821.94 618.901 821.63 618.722 821.07C618.543 820.51 618.851 819.912 619.411 819.734C619.971 819.556 620.571 819.866 620.75 820.426C620.929 820.986 620.62 821.584 620.059 821.762Z" fill="white"/>
<path opacity="0.3" d="M627.762 744.456C627.202 744.634 626.603 744.324 626.424 743.764C626.245 743.204 626.554 742.607 627.114 742.429C627.674 742.25 628.273 742.56 628.452 743.12C628.631 743.68 628.322 744.278 627.762 744.456Z" fill="white"/>
<path opacity="0.11" d="M145.844 848.36C145.284 848.538 144.686 848.228 144.506 847.668C144.327 847.108 144.636 846.51 145.196 846.332C145.756 846.154 146.356 846.464 146.534 847.024C146.713 847.584 146.404 848.182 145.844 848.36Z" fill="white"/>
<path opacity="0.11" d="M227.131 892.945C226.01 893.3 224.81 892.681 224.452 891.56C224.095 890.439 224.713 889.241 225.835 888.885C226.955 888.529 228.154 889.149 228.512 890.27C228.87 891.391 228.252 892.589 227.131 892.945Z" fill="white"/>
<path d="M216.293 857.278C215.452 857.544 214.554 857.08 214.285 856.239C214.017 855.399 214.481 854.501 215.321 854.234C216.162 853.967 217.06 854.432 217.329 855.272C217.597 856.113 217.133 857.01 216.293 857.278Z" fill="white"/>
<path d="M642.875 842.448C642.035 842.715 641.136 842.25 640.867 841.41C640.598 840.57 641.062 839.672 641.902 839.405C642.743 839.138 643.642 839.602 643.911 840.443C644.179 841.283 643.716 842.182 642.875 842.448Z" fill="white"/>
<path d="M770.336 776.269C769.494 776.535 768.596 776.071 768.327 775.23C768.059 774.39 768.523 773.493 769.363 773.226C770.204 772.959 771.102 773.424 771.371 774.264C771.64 775.104 771.176 776.002 770.336 776.269Z" fill="white"/>
<path d="M774.619 730.216C773.778 730.483 772.879 730.018 772.61 729.177C772.342 728.337 772.806 727.44 773.646 727.172C774.487 726.905 775.386 727.37 775.655 728.21C775.923 729.051 775.459 729.949 774.619 730.216Z" fill="white"/>
<path d="M271.467 862.1C270.626 862.367 269.727 861.902 269.459 861.061C269.191 860.221 269.654 859.324 270.495 859.057C271.335 858.789 272.234 859.255 272.502 860.095C272.772 860.936 272.307 861.833 271.467 862.1Z" fill="white"/>
<path d="M471.961 881.093C471.121 881.361 470.222 880.895 469.954 880.055C469.685 879.214 470.148 878.317 470.989 878.05C471.829 877.783 472.729 878.248 472.997 879.088C473.265 879.929 472.802 880.826 471.961 881.093Z" fill="white"/>
<path opacity="0.3" d="M132.93 884.863C131.81 885.218 130.611 884.599 130.253 883.478C129.894 882.357 130.513 881.16 131.634 880.803C132.755 880.447 133.954 881.068 134.312 882.189C134.67 883.31 134.051 884.507 132.93 884.863Z" fill="white"/>
<path d="M109.925 812.847C108.804 813.203 107.604 812.584 107.246 811.463C106.888 810.342 107.506 809.144 108.627 808.788C109.748 808.432 110.948 809.052 111.306 810.173C111.664 811.293 111.046 812.492 109.925 812.847Z" fill="white"/>
<path opacity="0.3" d="M25.9706 899.843C24.8496 900.199 23.6506 899.579 23.2925 898.459C22.9345 897.338 23.5529 896.141 24.6739 895.785C25.7949 895.428 26.9939 896.049 27.352 897.169C27.7101 898.29 27.0917 899.487 25.9706 899.843Z" fill="white"/>
<path opacity="0.3" d="M655.691 800.386C654.57 800.742 653.371 800.122 653.013 799.001C652.655 797.88 653.273 796.682 654.394 796.326C655.515 795.971 656.714 796.59 657.072 797.711C657.431 798.832 656.812 800.03 655.691 800.386Z" fill="white"/>
<path opacity="0.3" d="M720.039 718.497C718.918 718.853 717.719 718.233 717.361 717.112C717.003 715.992 717.621 714.794 718.742 714.438C719.863 714.082 721.062 714.701 721.421 715.822C721.779 716.944 721.16 718.141 720.039 718.497Z" fill="white"/>
<path opacity="0.3" d="M563.957 730.081C562.836 730.438 561.637 729.817 561.279 728.696C560.921 727.576 561.539 726.379 562.66 726.023C563.781 725.666 564.98 726.286 565.339 727.407C565.697 728.528 565.078 729.725 563.957 730.081Z" fill="white"/>
<path opacity="0.11" d="M584.863 701.099C583.742 701.455 582.543 700.834 582.185 699.713C581.826 698.593 582.445 697.396 583.566 697.04C584.687 696.684 585.886 697.303 586.244 698.424C586.603 699.545 585.984 700.742 584.863 701.099Z" fill="white"/>
<path opacity="0.3" d="M613.719 763.436C612.597 763.792 611.398 763.172 611.04 762.051C610.682 760.931 611.3 759.734 612.421 759.378C613.542 759.021 614.742 759.641 615.1 760.762C615.458 761.883 614.84 763.08 613.719 763.436Z" fill="white"/>
<path d="M549.994 782.566C549.154 782.833 548.255 782.368 547.987 781.528C547.719 780.687 548.182 779.79 549.023 779.523C549.863 779.255 550.762 779.72 551.03 780.561C551.299 781.402 550.835 782.299 549.994 782.566Z" fill="white"/>
</g>
</g>
</g>
<defs>
<clipPath id="clip0_347_256">
<rect width="1424.79" height="899.4" fill="white"/>
</clipPath>
</defs>
</svg>
