<svg width="1240" height="27" viewBox="0 0 1240 27" fill="none" xmlns="http://www.w3.org/2000/svg">
<mask id="mask0_289_2737" style="mask-type:alpha" maskUnits="userSpaceOnUse" x="0" y="0" width="1240" height="28">
<rect width="1240" height="27.19" fill="url(#paint0_linear_289_2737)"/>
</mask>
<g mask="url(#mask0_289_2737)">
<g clip-path="url(#clip0_289_2737)">
<g clip-path="url(#clip1_289_2737)">
<mask id="mask1_289_2737" style="mask-type:luminance" maskUnits="userSpaceOnUse" x="0" y="-1" width="87" height="27">
<path d="M86.0816 -0.477539H0.634232V25.6669H86.0816V-0.477539Z" fill="white"/>
</mask>
<g mask="url(#mask1_289_2737)">
<path fill-rule="evenodd" clip-rule="evenodd" d="M8.05274 3.18208C8.56271 2.60092 9.02744 2.10492 9.47149 1.68961C1.96732 1.44609 4.1517 6.91254 1.70641 12.4678C-1.10949 18.8658 2.03773 21.3039 6.72745 22.0635C6.07739 21.2905 5.54668 20.406 5.14271 19.4514C2.10223 15.594 3.32598 8.5663 8.05274 3.18208Z" fill="#0B2857"/>
<path fill-rule="evenodd" clip-rule="evenodd" d="M26.1094 9.99756C25.4112 11.9794 24.1297 14.2031 22.3181 16.3918C20.9061 18.0971 19.3362 19.4402 17.7159 20.4128C15.8428 21.6356 13.5191 22.3572 10.9211 22.3572C9.4668 22.3572 8.03703 22.2757 6.72725 22.0636C7.50108 22.9832 8.44172 23.7466 9.53575 24.2791C16.3202 27.5853 16.7486 21.4436 23.9266 18.3272C27.9573 16.577 27.9721 13.1559 26.1094 9.99756Z" fill="#0B2857"/>
<path fill-rule="evenodd" clip-rule="evenodd" d="M17.713 3.60553C18.7137 3.78929 19.6632 4.12095 20.5134 4.60499C22.7919 5.90399 24.8673 7.89171 26.1089 9.99669C27.3312 6.52773 26.7619 3.80049 24.0875 3.30673C21.1486 2.76517 18.8508 2.59113 16.6427 1.0374C13.9232 -0.876371 11.5394 -0.24517 9.47066 1.68952C9.61671 1.694 9.7657 1.70072 9.91908 1.70969C12.7891 1.88 15.5279 2.44322 17.713 3.60553Z" fill="#0B2857"/>
<path fill-rule="evenodd" clip-rule="evenodd" d="M8.05312 3.18156C3.32635 8.5658 2.1026 15.5935 5.14309 19.4509C3.77776 16.2216 3.87263 12.1939 5.79685 8.97812C8.35851 4.69644 13.4966 2.82973 17.7142 3.60585C15.5291 2.4428 12.7903 1.88032 9.92097 1.70926C9.76684 1.70029 9.61784 1.69432 9.47179 1.68909C9.02782 2.10441 8.56309 2.60041 8.05312 3.18156Z" fill="#0B2857"/>
<path fill-rule="evenodd" clip-rule="evenodd" d="M20.5145 4.60457C19.6643 4.11978 18.7148 3.78886 17.7141 3.6051C20.5916 5.13568 22.5062 7.70752 22.4847 11.804C22.4654 15.3581 20.6435 18.4992 17.7164 20.4115C19.3367 19.4389 20.9073 18.0959 22.3187 16.3904C24.1309 14.2018 25.4117 11.978 26.11 9.9963C24.8685 7.89133 22.793 5.90283 20.5145 4.60457Z" fill="#0B2857"/>
<path fill-rule="evenodd" clip-rule="evenodd" d="M17.2404 18.4645C13.9916 20.568 9.6599 19.6298 7.56444 16.3685C5.46902 13.1072 6.50525 8.90756 9.65175 6.65321C13.1703 4.13288 17.6829 5.12711 19.3277 8.7492C20.9317 12.281 20.4884 16.361 17.2404 18.4645ZM17.714 3.60551C13.4964 2.83014 8.35828 4.69611 5.79665 8.97779C3.87244 12.1936 3.77682 16.222 5.14288 19.4505C5.54685 20.4052 6.07682 21.2903 6.72762 22.0635C8.03733 22.2756 9.46718 22.3563 10.9207 22.3563C13.5195 22.3563 15.8431 21.6347 17.7155 20.4119C20.6433 18.5003 22.4653 15.3586 22.4838 11.8044C22.506 7.70796 20.5907 5.13608 17.714 3.60551Z" fill="#0B2857"/>
<path fill-rule="evenodd" clip-rule="evenodd" d="M71.4326 9.11814C70.6996 9.11814 69.994 9.31381 69.3358 9.70001C68.6768 10.0862 68.1557 10.6129 67.7866 11.2657C67.4167 11.9193 67.2292 12.6595 67.2292 13.4663C67.2292 14.6734 67.6325 15.6632 68.4611 16.4939C69.2905 17.3237 70.263 17.7278 71.4326 17.7278C72.205 17.7278 72.9292 17.5366 73.5859 17.1594C74.2411 16.7836 74.7585 16.2623 75.1254 15.6102C75.4931 14.9558 75.6791 14.2178 75.6791 13.4155C75.6791 12.6192 75.4931 11.8902 75.1262 11.2485C74.7593 10.6076 74.2353 10.087 73.5674 9.70076C72.8996 9.31381 72.1813 9.11814 71.4326 9.11814ZM71.472 19.2726C69.8428 19.2726 68.4471 18.7019 67.3241 17.5762C66.2012 16.4505 65.6318 15.0686 65.6318 13.4701C65.6318 12.4063 65.8906 11.4069 66.402 10.4978C66.9134 9.58794 67.6206 8.86561 68.5048 8.34945C69.3884 7.83405 70.3579 7.57336 71.386 7.57336C73.0486 7.57336 74.4613 8.1411 75.584 9.26231C76.7069 10.3835 77.2771 11.7819 77.2771 13.4192C77.2771 15.0417 76.7085 16.4378 75.5885 17.5687C74.468 18.6997 73.0834 19.2726 71.472 19.2726ZM82.7476 19.2728C82.0596 19.2728 81.4245 19.0845 80.8627 18.7133C80.3076 18.3465 79.7941 17.7325 79.3349 16.8876C79.27 16.7681 79.31 16.618 79.4263 16.547L80.3257 16.004C80.4488 15.9293 80.6089 15.9733 80.6769 16.1011C81.2591 17.1805 81.9222 17.728 82.6472 17.728C82.9583 17.728 83.2551 17.6533 83.5277 17.5076C83.7995 17.3619 83.9997 17.1745 84.1401 16.934C84.2806 16.6912 84.3493 16.4417 84.3493 16.1713C84.3493 15.8658 84.2474 15.57 84.0359 15.2682C83.7218 14.8185 83.1312 14.2628 82.2794 13.6151C81.3694 12.9226 80.8136 12.4289 80.581 12.1055C80.1777 11.5639 79.9723 10.9641 79.9723 10.3261C79.9723 9.8197 80.0947 9.34983 80.3371 8.93079C80.5795 8.51023 80.9261 8.17486 81.3656 7.93358C81.8014 7.69449 82.2809 7.57275 82.7906 7.57275C83.3313 7.57275 83.8433 7.70944 84.3131 7.97911C84.7835 8.24879 85.2593 8.72085 85.769 9.42301C85.8506 9.53508 85.8279 9.69193 85.7177 9.7756L84.856 10.4352C84.7443 10.5204 84.5857 10.4979 84.5011 10.3859C84.125 9.88321 83.8071 9.5523 83.5556 9.40066C83.3132 9.25423 83.0564 9.18324 82.7695 9.18324C82.407 9.18324 82.1223 9.28783 81.8988 9.50374C81.6775 9.71662 81.5703 9.97134 81.5703 10.2829C81.5703 10.4778 81.6118 10.6697 81.6926 10.8528C81.7749 11.041 81.9343 11.2539 82.1646 11.4862C82.2514 11.5707 82.5565 11.8224 83.502 12.5268C84.4505 13.2319 85.0864 13.8482 85.4466 14.4106C85.8121 14.9821 85.9971 15.567 85.9971 16.1497C85.9971 16.9907 85.6777 17.7295 85.0479 18.3458C84.4196 18.9613 83.6462 19.2728 82.7476 19.2728ZM63.1392 19.0047H61.8436C61.7731 19.0047 61.7101 18.9613 61.6835 18.8956L60.0409 14.9217C60.0001 14.8193 59.8571 14.8193 59.8163 14.9217L58.1686 18.8956C58.1419 18.9613 58.0781 19.0047 58.0077 19.0047H56.7113C56.5854 19.0047 56.5015 18.8732 56.5549 18.7574L58.9179 13.4695C58.9824 13.3306 58.9824 13.1692 58.9187 13.0303L56.7892 8.22198C56.7076 8.04421 56.8374 7.84099 57.0323 7.84099H58.1226C58.2279 7.84099 58.3227 7.90526 58.3613 8.00381L59.8163 11.5528C59.8586 11.6618 60.012 11.6618 60.055 11.5528L61.5197 8.00162C61.5582 7.9045 61.6509 7.84099 61.7546 7.84099H62.8568C63.0421 7.84099 63.1645 8.03447 63.0866 8.20333L60.9445 13.0229C60.88 13.1632 60.88 13.3246 60.9445 13.465L63.2964 18.7582C63.3489 18.8732 63.2652 19.0047 63.1392 19.0047ZM35.2676 8.14359C35.2676 7.977 35.4017 7.84107 35.5678 7.84107H39.3821C41.2589 7.84107 42.7799 9.3746 42.7799 11.266V11.3586C42.7799 13.2724 41.2404 14.8239 39.3413 14.8239H37.0198C36.9093 14.8239 36.8197 14.9143 36.8197 15.0256V18.7022C36.8197 18.8696 36.6855 19.0048 36.5195 19.0048H35.5678C35.4017 19.0048 35.2676 18.8696 35.2676 18.7022V8.14359ZM36.8197 13.058C36.8197 13.1693 36.9093 13.2597 37.0198 13.2597H39.5466C40.4754 13.2597 41.2285 12.5007 41.2285 11.5655V11.1308C41.2285 10.1777 40.4613 9.40526 39.5155 9.40526H37.0198C36.9093 9.40526 36.8197 9.49566 36.8197 9.60697V13.058ZM52.9277 19.0044C52.821 19.0044 52.7232 18.9424 52.678 18.8446L51.8419 17.0563C51.7959 16.9592 51.6981 16.8965 51.5906 16.8965H46.3731C46.2664 16.8965 46.1686 16.9585 46.1226 17.0563L45.2821 18.8453C45.2361 18.9424 45.139 19.0044 45.0316 19.0044H43.9071C43.704 19.0044 43.5698 18.7916 43.6566 18.6063L48.6287 8.00064C48.6747 7.90352 48.7717 7.84077 48.8793 7.84077H49.1068C49.215 7.84077 49.3128 7.90352 49.358 8.00215L54.2657 18.6078C54.3516 18.7923 54.2175 19.0044 54.0144 19.0044H52.9277ZM47.0158 15.1552C46.9661 15.2598 47.0424 15.3808 47.1574 15.3808H50.793C50.9161 15.3808 50.9976 15.2516 50.945 15.1395L49.1482 11.2978C49.0845 11.1611 48.8918 11.1611 48.8281 11.2971L47.0158 15.1552Z" fill="#0B2857"/>
</g>
</g>
</g>
<g clip-path="url(#clip2_289_2737)">
<g clip-path="url(#clip3_289_2737)">
<mask id="mask2_289_2737" style="mask-type:luminance" maskUnits="userSpaceOnUse" x="175" y="-1" width="73" height="27">
<path d="M247.264 -0.355347H175.01V25.1808H247.264V-0.355347Z" fill="white"/>
</mask>
<g mask="url(#mask2_289_2737)">
<path d="M234.588 24.7037C234.469 24.7037 234.389 24.6242 234.389 24.505V1.21415C234.389 1.13466 234.469 1.05517 234.549 1.01543L238.603 0.180771C238.722 0.141022 238.841 0.260257 238.841 0.379493V24.505C238.841 24.6242 238.762 24.7037 238.642 24.7037H234.588Z" fill="#0B2857"/>
<path d="M183.516 25.1809C181.886 25.1809 180.456 24.7834 179.184 23.9886C177.912 23.1936 176.878 22.1205 176.163 20.7691C175.368 19.3781 175.01 17.828 175.01 16.0791C175.01 14.3303 175.368 12.7803 176.123 11.4686C176.878 10.1173 177.872 9.04421 179.144 8.2493C180.416 7.45439 181.886 7.05693 183.476 7.05693C184.788 7.05693 185.901 7.2954 186.894 7.77236C187.689 8.16981 188.325 8.6865 188.882 9.32242C189.001 9.48141 189.279 9.40191 189.279 9.20319V0.777143C189.279 0.697645 189.358 0.618158 189.438 0.57841L193.492 -0.256242C193.611 -0.295987 193.731 -0.176751 193.731 -0.0575146V24.5847C193.731 24.7039 193.651 24.7834 193.532 24.7834H189.915C189.835 24.7834 189.756 24.7039 189.716 24.6245L189.358 22.7564C189.319 22.5974 189.12 22.5576 189.001 22.6769C188.484 23.3129 187.848 23.8693 187.053 24.3462C186.139 24.9027 184.947 25.1809 183.516 25.1809ZM184.43 21.2858C185.861 21.2858 187.053 20.8089 187.928 19.855C188.842 18.8613 189.319 17.6292 189.319 16.1189C189.319 14.6086 188.842 13.3764 187.928 12.4225C187.014 11.429 185.861 10.952 184.43 10.952C182.999 10.952 181.847 11.429 180.932 12.3829C180.018 13.3367 179.541 14.5688 179.541 16.0791C179.541 17.5895 180.018 18.8215 180.932 19.8152C181.847 20.8089 183.039 21.2858 184.43 21.2858Z" fill="#0B2857"/>
<path d="M204.581 25.1806C202.832 25.1806 201.282 24.8229 199.97 24.0678C198.619 23.3126 197.585 22.2792 196.79 20.9279C196.035 19.5765 195.638 18.0264 195.638 16.2776C195.638 14.4891 195.995 12.8993 196.751 11.5082C197.506 10.1171 198.579 9.04396 199.891 8.2888C201.242 7.49389 202.832 7.09644 204.62 7.09644C206.329 7.09644 207.8 7.45414 209.111 8.2093C210.423 8.96447 211.417 9.95811 212.132 11.2697C212.887 12.5415 213.245 13.9725 213.245 15.5622C213.245 15.8007 213.245 16.079 213.205 16.3572C213.205 16.5956 213.205 16.7943 213.166 17.0329C213.166 17.152 213.086 17.1918 212.967 17.1918H200.248C200.129 17.1918 200.05 17.2713 200.05 17.3905C200.169 18.6226 200.646 19.6163 201.441 20.3317C202.315 21.0868 203.348 21.4843 204.541 21.4843C205.455 21.4843 206.21 21.2856 206.806 20.8881C207.402 20.4906 207.84 20.0137 208.158 19.4176C208.197 19.338 208.277 19.2983 208.317 19.2983H212.45C212.569 19.2983 212.689 19.4176 212.649 19.5367C212.331 20.5304 211.814 21.4445 211.099 22.2792C210.344 23.1537 209.429 23.869 208.317 24.3858C207.243 24.9422 206.011 25.1806 204.581 25.1806ZM204.62 10.7133C203.547 10.7133 202.554 11.0312 201.719 11.6672C200.924 12.2236 200.407 13.098 200.169 14.2109C200.129 14.3301 200.248 14.4494 200.368 14.4494H208.515C208.635 14.4494 208.714 14.3698 208.714 14.2507C208.595 13.2172 208.197 12.3826 207.482 11.7467C206.727 11.0312 205.773 10.7133 204.62 10.7133Z" fill="#0B2857"/>
<path d="M223.976 25.1806C222.228 25.1806 220.678 24.8229 219.366 24.0678C218.015 23.3126 216.981 22.2792 216.186 20.9279C215.431 19.5765 215.034 18.0264 215.034 16.2776C215.034 14.4891 215.391 12.8993 216.147 11.5082C216.902 10.1171 217.975 9.04396 219.286 8.2888C220.638 7.49389 222.228 7.09644 224.016 7.09644C225.725 7.09644 227.196 7.45414 228.507 8.2093C229.819 8.96447 230.813 9.95811 231.528 11.2697C232.283 12.5415 232.641 13.9725 232.641 15.5622C232.641 15.8007 232.641 16.079 232.601 16.3572C232.601 16.5956 232.601 16.7943 232.562 17.0329C232.562 17.152 232.482 17.1918 232.363 17.1918H219.644C219.525 17.1918 219.445 17.2713 219.445 17.3905C219.565 18.6226 220.042 19.6163 220.837 20.3317C221.711 21.0868 222.744 21.4843 223.937 21.4843C224.851 21.4843 225.606 21.2856 226.202 20.8881C226.798 20.4906 227.236 20.0137 227.554 19.4176C227.593 19.338 227.673 19.2983 227.712 19.2983H231.846C231.965 19.2983 232.085 19.4176 232.045 19.5367C231.727 20.5304 231.21 21.4445 230.495 22.2792C229.74 23.1537 228.825 23.869 227.712 24.3858C226.6 24.9422 225.368 25.1806 223.976 25.1806ZM224.016 10.7133C222.943 10.7133 221.949 11.0312 221.115 11.6672C220.32 12.2236 219.803 13.098 219.565 14.2109C219.525 14.3301 219.644 14.4494 219.763 14.4494H227.911C228.03 14.4494 228.11 14.3698 228.11 14.2507C227.991 13.2172 227.593 12.3826 226.878 11.7467C226.123 11.0312 225.169 10.7133 224.016 10.7133Z" fill="#0B2857"/>
<path d="M243.106 20.8257C243.106 20.7163 243.195 20.6277 243.304 20.6277H247.066C247.175 20.6277 247.263 20.7163 247.263 20.8257V24.5868C247.263 24.6961 247.175 24.7847 247.066 24.7847H243.304C243.195 24.7847 243.106 24.6961 243.106 24.5868V20.8257Z" fill="#0B2857"/>
</g>
</g>
</g>
<g clip-path="url(#clip4_289_2737)">
<g clip-path="url(#clip5_289_2737)">
<mask id="mask3_289_2737" style="mask-type:luminance" maskUnits="userSpaceOnUse" x="336" y="3" width="93" height="19">
<path d="M428.25 3.7865H336.469V21.0178H428.25V3.7865Z" fill="white"/>
</mask>
<g mask="url(#mask3_289_2737)">
<path d="M427.847 3.79761H427.892L427.937 5.76947L427.399 6.26243L423.948 9.7132L424.217 10.0269L424.889 10.6991L425.203 10.4302L427.847 7.78615H427.937V9.7132L425.965 11.6851L426.054 11.8643L426.861 12.671L427.175 12.4021L427.802 11.7747H427.937V13.7017L425.965 15.6736L425.786 15.6288L425.337 15.1358L425.248 15.091V15.0014L425.068 14.9117L424.979 14.7325L424.755 14.8669L420.004 19.6173H419.915V17.6903L423.858 13.7465L423.903 13.6569L423.724 13.5673L422.917 12.7606L422.559 13.0743L421.932 13.7465L420.945 14.7325L420.587 15.0462L420.139 15.4943L420.004 15.6736H419.915V13.7465L420.229 13.388L421.842 11.7747L421.752 11.5954L420.99 10.8336V10.7439L420.632 11.0576L420.004 11.6851H419.915V9.75801L421.887 7.78615L422.066 7.87578L422.873 8.68245L423.052 8.59282L427.847 3.79761Z" fill="#0B2857"/>
<path d="M372.187 12.8951L372.904 12.94L373.486 13.1192L373.979 13.4329L374.383 13.8811L374.562 14.2396H374.652L374.965 13.8363L375.324 13.4777L375.951 13.1192L376.713 12.94H377.609L378.326 13.0744L378.864 13.2985L379.267 13.5674L379.581 13.8363L379.895 14.2844L380.119 14.7326L380.298 15.3151L380.388 15.8978L380.433 20.693H378.506L378.461 16.1666L378.326 15.5841L378.057 15.1359L377.699 14.867L377.43 14.7774H376.668L376.265 14.9566L375.906 15.2255L375.637 15.6737L375.458 16.2115L375.413 20.693H373.486L373.442 16.1219L373.262 15.5392L372.949 15.0911L372.545 14.8222L372.276 14.7326H371.604L371.156 14.9118L370.753 15.2704L370.439 15.8978L370.349 16.3011L370.304 20.693H368.422V13.0296H370.17L370.26 13.5226V13.9259L370.439 13.7466L370.708 13.4329L371.201 13.1192L371.783 12.94L372.187 12.8951Z" fill="#0B2857"/>
<path d="M336.469 9.8479H344.267V11.8198H338.531V14.7776H343.953L343.998 14.8672V16.6598H338.531V20.6932H336.469V9.8479Z" fill="#0B2857"/>
<path d="M385.094 12.8503H385.676L386.393 12.9848L386.931 13.2089L387.424 13.5226L387.738 13.8363L387.827 14.0603H387.917V13.1192L387.962 13.0296L389.754 13.0744V20.693H387.962L387.872 19.6622L387.558 20.0656L387.2 20.3793L386.483 20.7378L385.631 20.9619H385.004L384.063 20.7827L383.391 20.5137L382.898 20.2L382.449 19.7966L382.091 19.3485L381.732 18.6315L381.553 18.0041L381.464 17.4215V16.3011L381.598 15.5841L381.867 14.867L382.181 14.3292L382.674 13.7915L383.211 13.3881L383.928 13.0744L384.645 12.8952L385.094 12.8503ZM385.318 14.5533L384.735 14.6878L384.287 14.9118L383.839 15.3152L383.525 15.8529L383.391 16.2563L383.346 16.57V17.1975L383.48 17.78L383.704 18.2281L384.108 18.6763L384.556 18.99L385.094 19.1693L385.721 19.2141L386.304 19.1244L386.752 18.9452L387.155 18.6315L387.514 18.2281L387.738 17.7351L387.827 17.4215L387.872 16.7044L387.783 16.1667L387.558 15.6289L387.2 15.136L386.617 14.7326L386.214 14.5981L385.9 14.5533H385.318Z" fill="#0B2857"/>
<path d="M354.843 12.8055H355.381L356.143 12.8952L356.905 13.1192L357.487 13.4329L357.936 13.7915L358.294 14.1948L358.608 14.7326L358.832 15.3599L358.966 15.9874L359.011 16.4355V17.287L358.966 17.556L353.006 17.6007L353.185 18.0937L353.454 18.497L353.768 18.766L354.35 19.0348L354.798 19.1244H355.695L356.322 18.99L356.86 18.766L357.263 18.497L357.443 18.5419L358.518 19.6175L358.428 19.7967L357.891 20.2L357.174 20.5585L356.457 20.7826L355.605 20.9171H354.843L353.947 20.7826L353.275 20.5585L352.692 20.2448L352.244 19.8863L351.885 19.5278L351.482 18.9004L351.213 18.2282L351.079 17.6456L351.034 17.287V16.346L351.169 15.6289L351.392 15.0015L351.661 14.5085L351.975 14.1052L352.423 13.657L353.051 13.2537L353.723 12.9848L354.35 12.8504L354.843 12.8055ZM354.709 14.5085L354.216 14.643L353.768 14.867L353.454 15.136L353.14 15.6289L353.006 15.9874H357.174L357.039 15.4945L356.815 15.136L356.591 14.9118L356.233 14.6878L355.65 14.5085H354.709Z" fill="#0B2857"/>
<path d="M363.448 12.8055H363.986L364.747 12.8952L365.509 13.1192L366.226 13.5226L366.63 13.8811L367.033 14.4189L367.302 14.9567L367.481 15.5392L367.571 16.077L367.616 17.063L367.571 17.556L361.61 17.6007L361.79 18.1385L362.059 18.497L362.372 18.766L362.82 18.99L363.403 19.1244H364.299L365.061 18.9453L365.957 18.497L366.361 18.9004L366.719 19.2141L367.123 19.6175L367.033 19.7967L366.495 20.2L365.778 20.5585L365.061 20.7826L364.21 20.9171H363.448L362.551 20.7826L361.879 20.5585L361.207 20.2L360.669 19.707L360.311 19.3037L359.952 18.6315L359.728 17.9145L359.638 17.3767V16.3011L359.773 15.5841L360.042 14.867L360.356 14.3741L360.759 13.9259L361.073 13.6122L361.655 13.2537L362.327 12.9848L362.955 12.8504L363.448 12.8055ZM363.269 14.5085L362.686 14.6878L362.193 15.0015L361.879 15.3599L361.61 15.8977V15.9874H365.733L365.689 15.6289L365.464 15.1807L365.151 14.867L364.613 14.5981L364.254 14.5085H363.269Z" fill="#0B2857"/>
<path d="M408.218 12.8055H408.711L409.517 12.8952L410.234 13.1192L410.772 13.3881L411.176 13.7018L411.579 14.1052L411.937 14.6878L412.206 15.4048L412.341 16.1667V17.556H406.336L406.56 18.1385L406.828 18.5419L407.277 18.8556L407.725 19.0348L408.128 19.1244H409.069L409.831 18.9453L410.459 18.6315L410.638 18.497L410.817 18.5867L411.758 19.5278L411.893 19.6175V19.707L411.444 20.0656L410.817 20.4241L410.279 20.6482L409.607 20.8275L408.98 20.9171H408.218L407.321 20.7826L406.649 20.5585L406.111 20.2897L405.708 19.9759L405.35 19.6622L404.901 19.0348L404.588 18.3178L404.408 17.5111L404.364 16.6596L404.453 15.8977L404.677 15.136L405.036 14.4637L405.529 13.8811L406.022 13.4778L406.694 13.1192L407.456 12.8952L408.218 12.8055ZM408.038 14.5085L407.456 14.6878L407.008 14.9567L406.694 15.2704L406.38 15.8977V15.9874H410.503L410.459 15.6289L410.234 15.1807L409.921 14.867L409.383 14.5981L408.98 14.5085H408.038Z" fill="#0B2857"/>
<path d="M397.149 9.8479H399.031L399.076 16.0324L399.48 15.5842L399.883 15.0912L400.421 14.4639L400.824 13.9709L401.631 13.0298L403.916 13.0746L403.826 13.2539L403.244 13.8813L402.93 14.2398L402.124 15.1361L401.81 15.4946L401.362 15.9876L401.048 16.3461L400.824 16.6149L400.914 16.7942L401.586 17.5113L401.9 17.8698L402.392 18.4076L402.796 18.8557L403.334 19.4383L403.737 19.8864L404.23 20.4242L404.32 20.5587V20.6932H401.989L401.586 20.2001L401.138 19.7072L400.734 19.2142L400.241 18.6764L399.838 18.1835L399.39 17.6905L399.076 17.332L399.031 20.6932H397.149V9.8479Z" fill="#0B2857"/>
<path d="M415.568 10.8783H415.657V13.0742H417.764L417.808 13.1639V14.6876H415.657L415.702 18.3176L415.837 18.6761L416.061 18.9002L416.374 19.0346H416.957L417.495 18.8554H417.584L418.077 20.3342L418.033 20.5135L417.271 20.7376L417.002 20.7825H415.837L415.299 20.648L414.716 20.3342L414.313 19.931L414.044 19.4827L413.865 18.9898L413.775 18.452V14.6876H412.341V13.0742H413.775V11.1024L414.313 11.0127L415.568 10.8783Z" fill="#0B2857"/>
<path d="M348.659 12.8503H349.51L350.138 12.9848L350.586 13.1641L351.034 13.4777L351.124 13.657L350.586 14.6429L350.272 15.2255L349.645 14.867L349.286 14.7774H348.524L348.031 14.9118L347.628 15.136L347.314 15.4944L347.135 15.8529L347.046 16.2563L347.001 20.693H345.074V13.0744L345.163 13.0296L346.866 13.0744L347.001 13.8811L347.404 13.3881L347.852 13.0744L348.39 12.8952L348.659 12.8503Z" fill="#0B2857"/>
<path d="M394.46 12.8503H395.356L396.073 13.0296L396.611 13.2985L396.925 13.5674L396.835 13.8363L396.297 14.867L396.118 15.1807L395.939 15.136L395.58 14.9118L395.087 14.7774H394.325L393.832 14.9118L393.384 15.1807L393.071 15.5841L392.891 16.077L392.846 16.3011L392.802 20.693H390.919V13.0296L392.667 13.0744L392.757 13.5226V13.8811L393.384 13.2537L394.012 12.94L394.46 12.8503Z" fill="#0B2857"/>
<path d="M427.847 3.79761H427.892L427.937 5.76947L427.399 6.26243L421.932 11.7299L421.618 11.461L420.99 10.8336V10.7439L420.632 11.0576L420.004 11.6851H419.915V9.75801L421.887 7.78615L422.066 7.87578L422.873 8.68245L423.052 8.59282L427.847 3.79761Z" fill="#0B2857"/>
<path d="M423.858 9.75793L424.038 9.84757L424.889 10.6991L424.8 10.8783L422.917 12.7605L422.559 13.0743L421.932 13.7465L420.945 14.7324L420.587 15.0461L420.139 15.4943L420.004 15.6736H419.915V13.7465L420.229 13.388L423.858 9.75793Z" fill="#0B2857"/>
<path d="M427.847 7.78638H427.937V9.71342L423.993 13.6571L423.769 13.6123L422.962 12.8057L423.007 12.6264L427.847 7.78638Z" fill="#0B2857"/>
<path d="M427.802 11.7748H427.936V13.7018L425.964 15.6736L425.785 15.6289L425.337 15.136L425.247 15.0911V15.0014L425.068 14.9118L424.934 14.6878L425.337 14.2396L427.802 11.7748Z" fill="#0B2857"/>
<path d="M421.887 7.78638L422.066 7.876L422.917 8.72749L422.648 9.04119L420.004 11.6853H419.915V9.75823L421.887 7.78638Z" fill="#0B2857"/>
<path d="M427.847 15.7184H427.937V17.6455L427.713 17.5559L427.265 17.0629L426.906 16.7491L426.996 16.5699L427.847 15.7184Z" fill="#0B2857"/>
<path d="M419.915 5.81433L420.094 5.90396L420.945 6.75546L420.721 6.97952L420.587 7.15879H420.497V7.24842H420.408V7.33805L420.184 7.51731L420.004 7.74138H419.915V5.81433Z" fill="#0B2857"/>
</g>
</g>
</g>
<g clip-path="url(#clip6_289_2737)">
<path d="M546.464 6.28564C542.862 6.28564 540.04 9.23839 540.04 13.0087C540.04 16.779 542.862 19.64 546.464 19.64C550.067 19.64 552.888 16.7264 552.888 13.0087C552.888 9.291 550.067 6.28564 546.464 6.28564ZM546.464 16.9308C544.552 16.9308 543.112 15.2455 543.112 13.0103C543.112 10.7749 544.554 8.99772 546.464 8.99772C548.374 8.99772 549.84 10.7224 549.84 13.0103C549.84 15.2981 548.388 16.9308 546.464 16.9308ZM568.484 0.92981H566.085C565.887 0.92981 565.726 1.0904 565.726 1.28859V18.8969C565.726 19.0943 565.888 19.2557 566.085 19.2557H568.484C568.683 19.2557 568.843 19.095 568.843 18.8969V1.28859C568.843 1.09117 568.683 0.92981 568.484 0.92981ZM563.286 6.61194C562.72 6.49519 561.782 6.28704 560.365 6.28704C557.889 6.28704 555.401 7.05367 555.401 10.9674V18.8983C555.401 19.0965 555.562 19.2571 555.76 19.2571H558.162C558.36 19.2571 558.52 19.0965 558.52 18.8983V11.0366C558.52 10.4643 558.62 9.03675 560.764 9.03675C561.654 9.03675 562.519 9.18198 562.698 9.20963C562.887 9.24037 563.055 9.16356 563.106 8.9792L563.625 7.03788C563.687 6.81589 563.548 6.66418 563.286 6.61194ZM538.628 6.67348H536.066C535.907 6.67348 535.768 6.78018 535.727 6.9338L533.289 15.5485L531.055 7.88448C530.859 7.17395 530.204 6.6743 529.463 6.6743H528.673C527.932 6.6743 527.277 7.1721 527.081 7.88448L524.847 15.5485L522.409 6.9338C522.37 6.78094 522.229 6.67348 522.07 6.67348H519.508C519.268 6.67348 519.092 6.9077 519.167 7.14044L522.663 18.0904C522.886 18.7893 523.528 19.2576 524.26 19.2576H525.292C526.03 19.2576 526.69 18.7638 526.901 18.0566L529.07 10.7259L531.239 18.0566C531.449 18.7634 532.109 19.2576 532.848 19.2576H533.88C534.612 19.2576 535.254 18.7891 535.477 18.0904L538.973 7.14044C539.05 6.90616 538.866 6.67348 538.628 6.67348ZM624.443 6.67348H621.995C621.995 6.67348 621.708 6.6734 621.613 6.91306L618.254 15.7888L614.892 6.89653C614.838 6.75749 614.689 6.67149 614.54 6.67149H612.091C611.756 6.67149 611.647 6.94571 611.727 7.16001L616.641 19.4886L614.655 24.5044C614.558 24.7533 614.663 24.9952 614.989 24.9952H617.408C617.555 24.9952 617.687 24.9076 617.741 24.7685L624.774 7.19025C624.9 6.88607 624.687 6.67348 624.443 6.67348ZM582.58 0.9318H580.181C579.983 0.9318 579.822 1.09239 579.822 1.29058V6.57045C579.357 6.47213 578.532 6.28775 577.189 6.28775C572.414 6.28775 571.416 10.5846 571.416 12.9326C571.416 18.1237 574.537 19.6437 577.454 19.6437C579.943 19.6437 581.636 19.0506 582.449 18.693C582.939 18.4817 582.939 18.196 582.939 17.9448V1.29092C582.939 1.09351 582.778 0.9318 582.58 0.9318ZM579.823 16.6555C579.823 16.6555 578.874 16.9358 577.804 16.9358C575.295 16.9358 574.689 15.1593 574.689 13.0518C574.689 12.3006 574.611 9.02433 577.686 9.02433C578.733 9.02433 579.822 9.31231 579.822 9.31231L579.823 16.6555ZM605.197 6.28763C603.068 6.28763 601.872 6.56644 600.711 6.8929C600.402 6.98124 600.271 7.19472 600.36 7.54422L600.718 8.99971C600.764 9.20942 600.958 9.49505 601.304 9.40748C602.049 9.22313 603.193 8.85907 604.871 8.85907C606.548 8.85907 606.983 9.48359 606.983 10.9808H604.91C600.5 10.9808 599.274 13.3078 599.274 15.2129C599.274 17.6159 600.443 19.6427 604.592 19.6427C607.717 19.6427 609.274 18.8538 609.623 18.671C609.905 18.5236 610.076 18.4098 610.076 17.9183V10.6589C610.076 7.37751 608.135 6.28763 605.197 6.28763ZM606.958 16.8426C606.958 16.8426 605.999 17.1622 604.693 17.1622C602.895 17.1622 602.38 16.2619 602.38 15.3278C602.38 14.138 603.164 13.3701 604.881 13.3701H606.957L606.958 16.8426ZM591.337 6.28763C588.848 6.28763 587.155 6.88054 586.342 7.23819C585.852 7.44943 585.852 7.73526 585.852 7.98644V24.6387C585.852 24.8361 586.013 24.9974 586.211 24.9974H588.61C588.808 24.9974 588.969 24.8361 588.969 24.6387V19.359C589.434 19.4573 590.259 19.6416 591.602 19.6416C596.377 19.6416 597.375 15.3449 597.375 12.9968C597.375 7.80577 594.255 6.28763 591.337 6.28763ZM591.106 16.9059C590.058 16.9059 588.968 16.6178 588.968 16.6178V9.27422C588.968 9.27422 589.918 8.99385 590.987 8.99385C593.497 8.99385 594.102 10.7703 594.102 12.8778C594.102 13.629 594.181 16.9059 591.106 16.9059Z" fill="#0B2857"/>
</g>
<g clip-path="url(#clip7_289_2737)">
<g clip-path="url(#clip8_289_2737)">
<mask id="mask4_289_2737" style="mask-type:luminance" maskUnits="userSpaceOnUse" x="714" y="3" width="123" height="18">
<path d="M836.688 3.79272H714.311V20.8828H836.688V3.79272Z" fill="white"/>
</mask>
<g mask="url(#mask4_289_2737)">
<path d="M727.367 4.24121L725.749 7.01225H722.466V20.4402H719.408V7.01225H714.507V4.24121H727.367Z" fill="#0B2857"/>
<path d="M744.414 4.24121L748.901 20.4352H745.749L744.062 14.0521L742.899 16.8329H739.132L738.155 20.4426H735.014L739.507 4.24121H744.414ZM744.062 14.0521L742.101 6.78641H741.824L739.852 14.0521H744.062Z" fill="#0B2857"/>
<path d="M762.15 4.24121V17.6691H767.989L769.645 20.4499H759.092V4.24121H762.15Z" fill="#0B2857"/>
<path d="M783.649 3.92004C787.791 3.92004 790.313 6.48355 790.313 10.6218V14.0398C790.313 18.3001 787.789 20.7452 783.647 20.7452C779.505 20.7452 776.983 18.2952 776.983 14.0447V10.6267C776.993 6.48355 779.507 3.92004 783.649 3.92004ZM780.04 14.1924C780.04 16.5289 781.193 18.0279 783.649 18.0279C786.174 18.0279 787.259 16.4312 787.259 14.1924V10.4839C787.259 8.19623 785.916 6.64712 783.649 6.64712C781.312 6.64712 780.04 8.2951 780.04 10.4839V14.1924Z" fill="#0B2857"/>
<path d="M811.055 9.05452V9.74423H808.096V9.25594C808.096 7.40288 806.914 6.59354 805.069 6.59354C803.452 6.59354 802.456 7.40288 802.456 8.51618C802.456 10.0457 803.886 10.3216 805.838 10.7647L806.046 10.8148C809.379 11.5546 811.341 12.7374 811.341 15.6769C811.341 18.9411 808.797 20.765 805.345 20.765C801.391 20.765 798.846 18.6347 798.846 14.8383V14.3256H801.854V14.7394C801.854 16.7377 802.988 18.0805 805.45 18.0805C807.413 18.0805 808.339 17.0344 808.339 15.832C808.339 14.422 807.137 13.9581 805.007 13.4943L804.799 13.4454C801.44 12.7094 799.448 11.5497 799.448 8.61018C799.448 5.72072 801.923 3.9165 805.063 3.9165C808.531 3.92017 811.055 5.80984 811.055 9.05452Z" fill="#0B2857"/>
<path d="M824.912 15.9089H820.386V20.4353H824.912V15.9089Z" fill="#0B2857"/>
<path d="M830.74 15.9089H826.213V20.4353H830.74V15.9089Z" fill="#0B2857"/>
<path d="M824.912 10.08H820.386V14.6064H824.912V10.08Z" fill="#0B2857"/>
<path d="M836.578 4.24243H832.052V8.76887H836.578V4.24243Z" fill="#0B2857"/>
<path d="M830.74 4.24243H826.213V8.76887H830.74V4.24243Z" fill="#0B2857"/>
<path d="M836.578 10.08H832.052V14.6064H836.578V10.08Z" fill="#0B2857"/>
</g>
</g>
</g>
<g clip-path="url(#clip9_289_2737)">
<path d="M1012.54 6.15376L1010.42 19.4386C1010.41 19.4874 1010.42 19.5374 1010.43 19.5849C1010.44 19.6326 1010.47 19.6766 1010.5 19.714C1010.53 19.7515 1010.57 19.7814 1010.62 19.8017C1010.66 19.8222 1010.71 19.8324 1010.76 19.8318H1013.26C1013.35 19.8326 1013.44 19.8017 1013.5 19.7448C1013.57 19.6878 1013.62 19.6086 1013.63 19.5214L1015.75 6.23651C1015.75 6.18772 1015.75 6.1378 1015.74 6.09023C1015.72 6.04267 1015.7 5.99861 1015.67 5.96114C1015.64 5.92368 1015.6 5.89373 1015.55 5.87338C1015.51 5.85303 1015.46 5.84278 1015.41 5.84333H1012.9C1012.82 5.84159 1012.73 5.87212 1012.66 5.92925C1012.59 5.98636 1012.55 6.06617 1012.54 6.15376ZM1009.86 10.0306H1007.49C1007.4 10.0297 1007.32 10.0605 1007.25 10.1174C1007.18 10.1743 1007.14 10.2534 1007.12 10.3405L1007.04 10.8296C1007.04 10.8296 1005.2 8.83004 1001.94 10.1813C1000.06 10.955 999.163 12.5535 998.781 13.7245C998.781 13.7245 997.567 17.2836 1000.31 19.2427C1000.31 19.2427 1002.86 21.1268 1005.73 19.1267L1005.68 19.4386C1005.67 19.5119 1005.68 19.587 1005.71 19.6522C1005.75 19.7176 1005.81 19.7695 1005.87 19.8002C1005.92 19.8213 1005.97 19.8318 1006.02 19.8318H1008.39C1008.48 19.8336 1008.57 19.803 1008.63 19.746C1008.7 19.6889 1008.75 19.609 1008.76 19.5214L1010.2 10.4238C1010.21 10.375 1010.21 10.3251 1010.2 10.2776C1010.18 10.2302 1010.16 10.1863 1010.13 10.1492C1010.09 10.1114 1010.05 10.0811 1010.01 10.0606C1009.96 10.04 1009.91 10.0301 1009.86 10.0306ZM1006.37 15.0585C1006.28 15.6941 1005.96 16.2741 1005.47 16.6897C1004.98 17.1068 1004.35 17.3319 1003.7 17.3237C1003.45 17.3267 1003.2 17.2901 1002.96 17.2151C1001.93 16.8884 1001.35 15.9113 1001.52 14.8519C1001.61 14.2166 1001.93 13.637 1002.42 13.2217C1002.91 12.8045 1003.54 12.5786 1004.18 12.5856C1004.44 12.583 1004.69 12.6201 1004.93 12.6953C1005.96 13.0199 1006.54 13.9987 1006.37 15.059L1006.37 15.0585ZM993.693 15.3099C994.98 15.3099 996.226 14.8524 997.204 14.0208C998.18 13.192 998.826 12.0403 999.025 10.7753C999.441 8.14383 997.37 5.84702 994.435 5.84702H989.706C989.618 5.84618 989.532 5.87705 989.465 5.93402C989.397 5.99099 989.352 6.07028 989.339 6.15745L987.224 19.4424C987.212 19.5157 987.225 19.5907 987.26 19.656C987.295 19.7212 987.351 19.7733 987.419 19.8039C987.464 19.825 987.512 19.8355 987.562 19.8355H990.066C990.154 19.8363 990.24 19.8055 990.307 19.7485C990.375 19.6916 990.419 19.6122 990.433 19.5251L991.054 15.6241C991.067 15.5363 991.112 15.4564 991.179 15.3992C991.247 15.342 991.333 15.3113 991.422 15.3131L993.693 15.3099ZM995.787 10.6557C995.633 11.6286 994.875 12.3449 993.425 12.3449H991.572L992.134 8.80684H993.955C995.454 8.80948 995.942 9.68699 995.787 10.6583V10.6557Z" fill="#0B2857"/>
<path d="M984.371 10.2567L981.507 15.0553L980.053 10.292C980.03 10.216 979.984 10.1494 979.92 10.1023C979.856 10.0553 979.778 10.0303 979.699 10.0311H977.114C977.048 10.0302 976.983 10.0535 976.932 10.0967C976.881 10.1399 976.847 10.2001 976.837 10.2662C976.83 10.31 976.835 10.3547 976.85 10.3963L979.454 18.4199L977.099 22.2008C977.079 22.2319 977.065 22.2668 977.059 22.3034C977.053 22.3399 977.054 22.3771 977.063 22.4131C977.072 22.449 977.088 22.4828 977.111 22.5122C977.133 22.5417 977.161 22.5663 977.194 22.5845C977.237 22.6092 977.286 22.6219 977.335 22.6214H980.119C980.199 22.6217 980.277 22.6015 980.346 22.5626C980.415 22.5238 980.473 22.4679 980.515 22.4001L987.79 10.4538C987.816 10.4122 987.831 10.3642 987.832 10.3149C987.833 10.2657 987.82 10.2171 987.796 10.1745C987.771 10.1316 987.736 10.0962 987.693 10.0718C987.65 10.0475 987.601 10.035 987.552 10.0358H984.769C984.689 10.0351 984.611 10.0551 984.541 10.0938C984.471 10.1325 984.412 10.1886 984.371 10.2567ZM975.649 10.0311H973.273C973.184 10.0302 973.099 10.0612 973.031 10.1182C972.964 10.1753 972.919 10.2547 972.905 10.342L972.828 10.8306C972.828 10.8306 970.982 8.83104 967.717 10.1823C965.845 10.956 964.945 12.5546 964.564 13.7256C964.564 13.7256 963.349 17.2846 966.095 19.2436C966.095 19.2436 968.642 21.1277 971.509 19.1277L971.46 19.4397C971.448 19.513 971.461 19.588 971.496 19.6534C971.532 19.7188 971.587 19.7707 971.655 19.8012C971.7 19.8223 971.749 19.8328 971.798 19.8328H974.174C974.262 19.8335 974.348 19.8025 974.415 19.7456C974.483 19.6886 974.527 19.6095 974.542 19.5224L975.987 10.4248C975.999 10.3514 975.986 10.2762 975.951 10.2107C975.916 10.1453 975.86 10.0933 975.792 10.0627C975.747 10.042 975.699 10.0312 975.649 10.0311ZM972.155 15.0601C972.062 15.6949 971.74 16.274 971.251 16.689C970.759 17.1061 970.133 17.3317 969.489 17.3248C969.236 17.3275 968.985 17.2908 968.744 17.2161C967.719 16.8894 967.135 15.9122 967.303 14.8524C967.396 14.2157 967.719 13.6351 968.211 13.2197C968.704 12.8023 969.332 12.5776 969.978 12.5867C970.231 12.5841 970.483 12.621 970.725 12.6963C971.746 13.021 972.327 13.9991 972.158 15.0601H972.155ZM959.477 15.3109C960.763 15.3103 962.006 14.8528 962.985 14.0202C963.96 13.1913 964.606 12.0401 964.805 10.7758C965.221 8.14485 963.15 5.84804 960.215 5.84804H955.485C955.397 5.84715 955.312 5.87793 955.244 5.93478C955.177 5.99165 955.132 6.07082 955.118 6.15793L953.01 19.4392C952.998 19.5126 953.01 19.5878 953.046 19.6532C953.081 19.7187 953.137 19.7707 953.205 19.8012C953.249 19.8218 953.298 19.8328 953.348 19.8328H955.85C955.939 19.8337 956.024 19.8028 956.092 19.7457C956.159 19.6886 956.204 19.6093 956.218 19.5219L956.838 15.6208C956.851 15.5332 956.896 15.4534 956.963 15.3962C957.031 15.3391 957.117 15.3086 957.206 15.3104L959.477 15.3109ZM961.572 10.6562C961.417 11.6291 960.66 12.3453 959.21 12.3453H957.357L957.918 8.80733H959.739C961.238 8.80996 961.726 9.68799 961.572 10.6588V10.6562Z" fill="#0B2857"/>
<path d="M943.3 6.53057C943.357 3.59711 940.937 1.34668 937.61 1.34668H930.728C930.568 1.3466 930.413 1.40379 930.291 1.50796C930.169 1.61211 930.088 1.7564 930.063 1.91482L927.306 19.145C927.293 19.2232 927.298 19.303 927.319 19.3791C927.341 19.4552 927.379 19.5256 927.43 19.5858C927.481 19.6459 927.545 19.6942 927.617 19.7273C927.689 19.7603 927.767 19.7775 927.846 19.7775H931.923L931.286 23.7671C931.273 23.8452 931.278 23.9251 931.3 24.0012C931.321 24.0772 931.359 24.1477 931.41 24.2079C931.461 24.268 931.525 24.3163 931.597 24.3493C931.669 24.3824 931.747 24.3996 931.826 24.3996H935.147C935.307 24.3996 935.45 24.3421 935.573 24.2383C935.694 24.134 935.714 23.99 935.739 23.8315L936.714 18.0952C936.739 17.9372 936.82 17.7316 936.941 17.6273C937.063 17.5229 937.169 17.466 937.33 17.466H939.363C942.621 17.466 945.385 15.1496 945.891 11.9284C946.249 9.64217 945.268 7.56197 943.3 6.53057Z" fill="#0B2857"/>
<path d="M932.805 13.423L931.789 19.8623L931.152 23.9015C931.139 23.9796 931.144 24.0595 931.166 24.1354C931.187 24.2116 931.225 24.282 931.276 24.342C931.328 24.4021 931.392 24.4504 931.463 24.4834C931.535 24.5164 931.613 24.5335 931.692 24.5335H935.208C935.368 24.5334 935.523 24.4762 935.645 24.3719C935.766 24.2677 935.847 24.1235 935.872 23.9653L936.798 18.0947C936.823 17.9364 936.904 17.7922 937.026 17.688C937.148 17.5839 937.303 17.5266 937.463 17.5266H939.532C942.791 17.5266 945.555 15.1496 946.061 11.9284C946.419 9.64216 945.268 7.56142 943.3 6.53003C943.295 6.77351 943.274 7.01647 943.237 7.25732C942.731 10.4775 939.966 12.8549 936.708 12.8549H933.47C933.309 12.8552 933.154 12.9125 933.032 13.0167C932.911 13.1209 932.83 13.2647 932.805 13.423Z" fill="#3B82F6"/>
<path d="M931.789 19.8621H927.699C927.62 19.8621 927.542 19.8449 927.47 19.8119C927.399 19.7788 927.335 19.7305 927.284 19.6703C927.232 19.6102 927.195 19.5397 927.173 19.4636C927.152 19.3876 927.147 19.3077 927.16 19.2297L929.917 1.7438C929.942 1.58547 930.023 1.44126 930.145 1.33711C930.266 1.23295 930.421 1.17571 930.582 1.17566H937.61C940.937 1.17566 943.357 3.59684 943.3 6.52977C942.473 6.0955 941.5 5.84727 940.434 5.84727H934.574C934.414 5.84719 934.259 5.90439 934.137 6.00855C934.015 6.11272 933.934 6.257 933.909 6.41541L932.806 13.4228L931.789 19.8621Z" fill="#0B2857"/>
</g>
<g clip-path="url(#clip10_289_2737)">
<g clip-path="url(#clip11_289_2737)">
<path d="M1139.42 5.74696L1138.84 4.74932C1138.68 4.45968 1138.33 4.36314 1138.04 4.52405C1138 4.55622 1137.94 4.58841 1137.91 4.62059L1136.59 5.94006C1136.4 6.13315 1136.37 6.45496 1136.53 6.68024C1137.01 7.42043 1137.39 8.22498 1137.68 9.06171C1139.51 14.5004 1136.59 20.3898 1131.17 22.2241C1130.11 22.5782 1128.98 22.7712 1127.86 22.7712C1126.16 22.7712 1124.49 22.3528 1123.01 21.5484L1125.26 19.2956C1129.08 20.7438 1133.35 18.8128 1134.79 14.9832C1135.5 13.0845 1135.4 10.9605 1134.54 9.12608C1134.41 8.83644 1134.06 8.70771 1133.73 8.83644C1133.67 8.86861 1133.61 8.9008 1133.57 8.96517L1132.23 10.2846C1132.07 10.4455 1132.03 10.6386 1132.07 10.8317L1132.19 11.3145C1132.74 13.6959 1131.26 16.1096 1128.89 16.6566C1127.8 16.9141 1126.64 16.7533 1125.68 16.1739L1125.1 15.8199C1124.88 15.6912 1124.59 15.7234 1124.39 15.9164L1118.94 21.3874C1118.71 21.6127 1118.71 21.9989 1118.94 22.2241C1118.97 22.2563 1118.97 22.2563 1119 22.2885L1119.8 22.9C1122.08 24.7665 1124.94 25.732 1127.86 25.732C1135.21 25.732 1141.18 19.7461 1141.18 12.3443C1141.18 10.0272 1140.57 7.77443 1139.42 5.74696Z" fill="#0B2857"/>
<path d="M1135.94 1.7884C1133.63 -0.0137885 1130.78 -0.979248 1127.85 -0.979248C1120.5 -0.979248 1114.53 5.0066 1114.53 12.4085C1114.53 14.7255 1115.14 17.0105 1116.27 19.0057L1116.84 20.0035C1117 20.293 1117.36 20.3897 1117.65 20.2287C1117.68 20.1965 1117.74 20.1643 1117.77 20.1322L1119.09 18.8127C1119.28 18.6197 1119.32 18.2978 1119.16 18.0725C1118.67 17.3323 1118.29 16.5277 1118 15.6911C1116.17 10.2523 1119.09 4.36296 1124.52 2.52858C1125.58 2.17458 1126.7 1.9815 1127.82 1.9815C1129.52 1.9815 1131.19 2.39987 1132.67 3.20441L1130.42 5.45716C1126.6 4.00896 1122.33 5.93989 1120.89 9.76955C1120.57 10.6063 1120.41 11.5074 1120.41 12.4085C1120.41 12.5372 1120.44 13.0842 1120.44 13.1809C1120.54 14.0176 1120.76 14.8543 1121.15 15.6266C1121.27 15.9163 1121.63 16.045 1121.95 15.9163C1122.01 15.8841 1122.08 15.8519 1122.11 15.7876L1123.46 14.436C1123.62 14.275 1123.65 14.0819 1123.62 13.8888L1123.52 13.4061C1122.97 11.0246 1124.45 8.61098 1126.83 8.0639C1127.92 7.80644 1129.07 7.96735 1130.04 8.54662L1130.61 8.90062C1130.84 9.02935 1131.13 8.99718 1131.32 8.80408L1136.78 3.33314C1137 3.10787 1137 2.72168 1136.78 2.49641C1136.75 2.46423 1136.75 2.46423 1136.71 2.43204L1135.94 1.7884Z" fill="#0B2857"/>
<path d="M1158.38 16.0774C1158.19 15.9165 1157.87 15.9165 1157.67 16.1095C1156.81 16.7853 1155.81 17.3968 1154.37 17.3968C1151.7 17.3968 1149.55 15.1441 1149.55 12.4086C1149.55 9.67314 1151.7 7.38822 1154.37 7.38822C1155.52 7.38822 1156.74 7.87096 1157.67 8.6755C1157.77 8.80423 1157.93 8.8686 1158.09 8.8686C1158.22 8.8686 1158.35 8.77204 1158.44 8.6755L1159.31 7.7744C1159.41 7.67786 1159.47 7.51695 1159.47 7.35603C1159.47 7.19513 1159.41 7.0664 1159.28 6.93767C1157.77 5.61821 1156.26 5.03894 1154.37 5.03894C1150.32 5.03894 1147.02 8.35368 1147.02 12.4408C1147.02 16.4957 1150.29 19.8104 1154.37 19.8104C1156.23 19.8427 1157.99 19.1025 1159.31 17.8152C1159.44 17.6865 1159.5 17.5255 1159.47 17.3647C1159.47 17.236 1159.41 17.1072 1159.31 17.0106L1158.38 16.0774Z" fill="#0B2857"/>
<path d="M1164.67 5.21045H1163.36C1163.07 5.21045 1162.81 5.4679 1162.81 5.75753V19.0165C1162.81 19.3062 1163.07 19.5637 1163.36 19.5637H1164.67C1164.96 19.5637 1165.22 19.3062 1165.22 19.0165V5.75753C1165.22 5.4679 1164.99 5.21045 1164.67 5.21045Z" fill="#0B2857"/>
<path d="M1180.18 9.68375C1180.18 7.23791 1178.16 5.21045 1175.69 5.21045H1170.29C1169.97 5.21045 1169.75 5.4679 1169.75 5.75753V19.0165C1169.75 19.3383 1170.01 19.5637 1170.29 19.5637H1171.58C1171.87 19.5637 1172.12 19.3062 1172.12 19.0165V14.0927H1174.82L1177.42 19.3062C1177.52 19.467 1177.71 19.5957 1177.9 19.5957H1179.44C1179.64 19.5957 1179.83 19.4992 1179.92 19.3383C1180.02 19.1452 1180.02 18.9522 1179.92 18.7591L1177.29 13.8352C1179.09 13.0306 1180.18 11.4538 1180.18 9.68375ZM1177.74 9.71592C1177.74 10.971 1176.71 12.033 1175.49 12.033H1172.12V7.52754H1175.53C1176.71 7.49537 1177.74 8.52519 1177.74 9.71592Z" fill="#0B2857"/>
<path d="M1194.27 16.0774C1194.08 15.9165 1193.76 15.9165 1193.57 16.1095C1192.7 16.7853 1191.7 17.3968 1190.26 17.3968C1187.6 17.3968 1185.45 15.1441 1185.45 12.4086C1185.45 9.67314 1187.6 7.38822 1190.23 7.38822C1191.38 7.38822 1192.6 7.87096 1193.53 8.6755C1193.63 8.80423 1193.79 8.8686 1193.95 8.8686C1194.08 8.8686 1194.21 8.77204 1194.3 8.6755L1195.17 7.7744C1195.27 7.67786 1195.33 7.51695 1195.33 7.35603C1195.33 7.19513 1195.27 7.0664 1195.14 6.93767C1193.63 5.61821 1192.12 5.03894 1190.23 5.03894C1186.18 5.03894 1182.88 8.35368 1182.88 12.4408C1182.88 16.4957 1186.15 19.8104 1190.23 19.8104C1192.09 19.8427 1193.86 19.1025 1195.17 17.8152C1195.3 17.6865 1195.36 17.5255 1195.33 17.3647C1195.33 17.236 1195.27 17.1072 1195.17 17.0106L1194.27 16.0774Z" fill="#0B2857"/>
<path d="M1206.31 17.343H1201.11V5.75753C1201.11 5.4679 1200.85 5.21045 1200.56 5.21045H1199.24C1198.92 5.21045 1198.7 5.4679 1198.7 5.75753V19.0165C1198.7 19.3384 1198.95 19.5637 1199.24 19.5637H1206.31C1206.63 19.5637 1206.85 19.3062 1206.85 19.0165V17.9224C1206.85 17.6005 1206.63 17.343 1206.31 17.343Z" fill="#0B2857"/>
<path d="M1218.03 7.45688C1218.35 7.45688 1218.58 7.19943 1218.58 6.9098V5.78343C1218.58 5.4616 1218.32 5.23633 1218.03 5.23633H1210.1C1209.78 5.23633 1209.56 5.49379 1209.56 5.78343V19.0423C1209.56 19.3642 1209.82 19.5895 1210.1 19.5895H1218.03C1218.35 19.5895 1218.58 19.332 1218.58 19.0423V17.9482C1218.58 17.6264 1218.32 17.4011 1218.03 17.4011H1211.93V13.4106H1217.04C1217.36 13.4106 1217.58 13.1531 1217.58 12.8634V11.7371C1217.58 11.4475 1217.33 11.19 1217.04 11.19H1211.93V7.45688H1218.03Z" fill="#0B2857"/>
</g>
</g>
</g>
<defs>
<linearGradient id="paint0_linear_289_2737" x1="0" y1="13.595" x2="1240" y2="13.595" gradientUnits="userSpaceOnUse">
<stop stop-opacity="0"/>
<stop offset="0.15"/>
<stop offset="0.85"/>
<stop offset="1" stop-opacity="0"/>
</linearGradient>
<clipPath id="clip0_289_2737">
<rect width="86.09" height="27.19" fill="white" transform="translate(0 -1)"/>
</clipPath>
<clipPath id="clip1_289_2737">
<rect width="86.09" height="27.1863" fill="white" transform="translate(0 -0.998169)"/>
</clipPath>
<clipPath id="clip2_289_2737">
<rect width="73.63" height="27.19" fill="white" transform="translate(174.09 -1)"/>
</clipPath>
<clipPath id="clip3_289_2737">
<rect width="73.63" height="27.1865" fill="white" transform="translate(174.09 -0.998291)"/>
</clipPath>
<clipPath id="clip4_289_2737">
<rect width="93.53" height="19.19" fill="white" transform="translate(335.72 3)"/>
</clipPath>
<clipPath id="clip5_289_2737">
<rect width="93.53" height="19.1856" fill="white" transform="translate(335.72 3.0022)"/>
</clipPath>
<clipPath id="clip6_289_2737">
<rect width="108.75" height="27.19" fill="white" transform="translate(517.25 -1)"/>
</clipPath>
<clipPath id="clip7_289_2737">
<rect width="123.11" height="19.19" fill="white" transform="translate(714 3)"/>
</clipPath>
<clipPath id="clip8_289_2737">
<rect width="123.11" height="19.186" fill="white" transform="translate(714 3.00195)"/>
</clipPath>
<clipPath id="clip9_289_2737">
<rect width="100.97" height="27.19" fill="white" transform="translate(925.11 -1)"/>
</clipPath>
<clipPath id="clip10_289_2737">
<rect width="104.67" height="27.19" fill="white" transform="translate(1114.08 -1)"/>
</clipPath>
<clipPath id="clip11_289_2737">
<rect width="104.67" height="27.187" fill="white" transform="translate(1114.08 -0.998535)"/>
</clipPath>
</defs>
</svg>
