<svg width="140" height="35" viewBox="0 0 140 35" fill="none" xmlns="http://www.w3.org/2000/svg">
<path d="M41.7846 17.0453C41.7846 9.4574 46.5823 4.31543 53.6267 4.31543C59.1745 4.31543 63.4287 7.61658 64.3455 12.6535H60.7726C59.8522 9.45377 57.0982 7.51512 53.5253 7.51512C48.5572 7.51512 45.2887 11.2584 45.2887 17.0091C45.2887 22.7598 48.5572 26.5031 53.5253 26.5031C57.1344 26.5031 59.9899 24.5644 60.9103 21.535H64.4506C63.3961 26.4342 59.0042 29.7028 53.4564 29.7028C46.4446 29.7028 41.7846 24.6659 41.7846 17.0417V17.0453Z" fill="#111827"/>
<path d="M82.6559 12.6904V29.3339H79.7969L79.4562 26.8154C78.5032 28.5512 76.2928 29.7434 73.8396 29.7434C69.9586 29.7434 67.7808 27.1235 67.7808 23.0396V12.6941H70.9805V21.9851C70.9805 25.558 72.5133 26.9205 74.9629 26.9205C77.8908 26.9205 79.4888 25.0471 79.4888 21.4742V12.6941H82.6523L82.6559 12.6904Z" fill="#111827"/>
<path d="M94.5339 12.248C99.5019 12.248 103.18 15.8572 103.18 20.9956C103.18 26.1339 99.5055 29.7431 94.5339 29.7431C89.5622 29.7431 85.8552 26.1339 85.8552 20.9956C85.8552 15.8572 89.5296 12.248 94.5339 12.248ZM94.5339 26.8804C97.7336 26.8804 99.9802 24.4634 99.9802 20.9919C99.9802 17.5205 97.7336 15.1035 94.5339 15.1035C91.3342 15.1035 89.0875 17.5205 89.0875 20.9919C89.0875 24.4634 91.298 26.8804 94.5339 26.8804Z" fill="#111827"/>
<path d="M116.247 15.4804H114.819C111.79 15.4804 109.92 17.3176 109.92 20.5173V29.3301H106.72V12.7228H109.713L109.916 15.2413C110.598 13.5056 112.264 12.3496 114.544 12.3496C115.124 12.3496 115.598 12.4185 116.247 12.5525V15.4804Z" fill="#111827"/>
<path d="M117.743 24.7029C117.743 21.641 120.023 19.7349 123.936 19.4269L129.176 19.0174V18.5427C129.176 15.7525 127.509 14.7669 125.262 14.7669C122.574 14.7669 121.041 15.9591 121.041 17.9666H118.251C118.251 14.4951 121.11 12.2158 125.397 12.2158C129.683 12.2158 132.307 14.3936 132.307 18.887V29.334H129.586L129.245 26.6452C128.393 28.5513 126.114 29.7435 123.425 29.7435C119.852 29.7435 117.743 27.7359 117.743 24.7066V24.7029ZM129.212 22.1519V21.2677L124.958 21.6083C122.135 21.8801 120.976 22.9708 120.976 24.6015C120.976 26.3698 122.269 27.2576 124.346 27.2576C127.375 27.2576 129.212 25.2827 129.212 22.1519Z" fill="#111827"/>
<path d="M136.8 29.3335V4.2832H140V29.3299H136.8V29.3335Z" fill="#111827"/>
<path d="M15.038 22.8729L10.233 34.628H7.28335C3.26109 34.628 -0.000198364 31.3667 -0.000198364 27.3445V24.3948L11.7549 19.5898C12.3637 21.0792 13.5523 22.2641 15.0416 22.8765L15.038 22.8729Z" fill="#111827"/>
<path d="M34.6235 7.28355V10.2332L22.8684 15.0382C22.2596 13.5489 21.071 12.3639 19.5817 11.7515L24.3903 0H27.34C31.3622 0 34.6235 3.26129 34.6235 7.28355Z" fill="#111827"/>
<path d="M34.6234 24.3906V27.3403C34.6234 31.3625 31.3621 34.6238 27.3399 34.6238H24.3902L19.5853 22.8687C21.0746 22.2599 22.2595 21.0714 22.8719 19.582L34.6271 24.387L34.6234 24.3906Z" fill="#111827"/>
<path d="M15.0382 11.7551C13.5489 12.3639 12.3639 13.5525 11.7515 15.0418L0 10.2332V7.28355C0 3.26129 3.26129 0 7.28355 0H10.2332L15.0382 11.7551Z" fill="#111827"/>
</svg>
