<svg width="140" height="35" viewBox="0 0 140 35" fill="none" xmlns="http://www.w3.org/2000/svg">
<g clip-path="url(#clip0_289_2675)">
<path d="M41.7846 17.0457C41.7846 9.45779 46.5823 4.31582 53.6267 4.31582C59.1745 4.31582 63.4287 7.61697 64.3455 12.6539H60.7726C59.8522 9.45416 57.0982 7.51551 53.5253 7.51551C48.5572 7.51551 45.2887 11.2587 45.2887 17.0095C45.2887 22.7602 48.5572 26.5035 53.5253 26.5035C57.1344 26.5035 59.9899 24.5648 60.9103 21.5354H64.4506C63.3961 26.4346 59.0042 29.7032 53.4564 29.7032C46.4446 29.7032 41.7846 24.6663 41.7846 17.0421V17.0457Z" fill="black"/>
<path d="M82.6559 12.69V29.3335H79.7969L79.4562 26.8151C78.5032 28.5508 76.2928 29.743 73.8396 29.743C69.9586 29.743 67.7808 27.1231 67.7808 23.0392V12.6937H70.9805V21.9847C70.9805 25.5576 72.5133 26.9201 74.9629 26.9201C77.8908 26.9201 79.4888 25.0467 79.4888 21.4738V12.6937H82.6523L82.6559 12.69Z" fill="black"/>
<path d="M94.5339 12.248C99.5019 12.248 103.18 15.8571 103.18 20.9955C103.18 26.1338 99.5055 29.743 94.5339 29.743C89.5622 29.743 85.8552 26.1338 85.8552 20.9955C85.8552 15.8571 89.5296 12.248 94.5339 12.248ZM94.5339 26.8803C97.7336 26.8803 99.9802 24.4633 99.9802 20.9919C99.9802 17.5204 97.7336 15.1034 94.5339 15.1034C91.3342 15.1034 89.0875 17.5204 89.0875 20.9919C89.0875 24.4633 91.298 26.8803 94.5339 26.8803Z" fill="black"/>
<path d="M116.247 15.4803H114.819C111.79 15.4803 109.92 17.3175 109.92 20.5172V29.3299H106.72V12.7227H109.713L109.916 15.2411C110.598 13.5054 112.264 12.3494 114.544 12.3494C115.124 12.3494 115.598 12.4183 116.247 12.5524V15.4803Z" fill="black"/>
<path d="M117.743 24.7024C117.743 21.6405 120.023 19.7344 123.936 19.4264L129.176 19.0169V18.5422C129.176 15.752 127.509 14.7664 125.262 14.7664C122.574 14.7664 121.041 15.9586 121.041 17.9661H118.251C118.251 14.4946 121.11 12.2153 125.397 12.2153C129.683 12.2153 132.307 14.3931 132.307 18.8865V29.3335H129.586L129.245 26.6447C128.393 28.5508 126.114 29.743 123.425 29.743C119.852 29.743 117.743 27.7354 117.743 24.7061V24.7024ZM129.212 22.1514V21.2672L124.958 21.6078C122.135 21.8796 120.976 22.9703 120.976 24.601C120.976 26.3693 122.269 27.2571 124.346 27.2571C127.375 27.2571 129.212 25.2822 129.212 22.1514Z" fill="black"/>
<path d="M136.8 29.3335V4.28317H140V29.3299H136.8V29.3335Z" fill="black"/>
<path d="M15.038 22.8725L10.233 34.6277H7.28335C3.26109 34.6277 -0.000198364 31.3664 -0.000198364 27.3441V24.3945L11.7549 19.5895C12.3637 21.0788 13.5523 22.2638 15.0416 22.8762L15.038 22.8725Z" fill="#3B82F6"/>
<path d="M34.6235 7.28355V10.2332L22.8684 15.0382C22.2596 13.5489 21.071 12.3639 19.5817 11.7515L24.3903 0H27.34C31.3622 0 34.6235 3.26129 34.6235 7.28355Z" fill="#3B82F6"/>
<path d="M34.6234 24.3909V27.3405C34.6234 31.3628 31.3621 34.6241 27.3399 34.6241H24.3902L19.5853 22.8689C21.0746 22.2601 22.2595 21.0716 22.8719 19.5823L34.6271 24.3872L34.6234 24.3909Z" fill="#3B82F6"/>
<path d="M15.0382 11.7551C13.5489 12.3639 12.3639 13.5525 11.7515 15.0418L0 10.2332V7.28355C0 3.26129 3.26129 0 7.28355 0H10.2332L15.0382 11.7551Z" fill="#3B82F6"/>
</g>
<defs>
<clipPath id="clip0_289_2675">
<rect width="140" height="34.6277" fill="white"/>
</clipPath>
</defs>
</svg>
