<svg width="630" height="380" viewBox="0 0 630 380" fill="none" xmlns="http://www.w3.org/2000/svg">
<rect width="630" height="380" rx="12" fill="white"/>
<rect x="1" y="1" width="628" height="378" rx="11" stroke="#200060" stroke-opacity="0.1" stroke-width="2"/>
<path d="M166 257L255 257" stroke="#826CE9" stroke-opacity="0.16" stroke-width="2" stroke-linecap="round"/>
<path d="M375 257L467 257" stroke="#826CE9" stroke-opacity="0.16" stroke-width="2" stroke-linecap="round"/>
<g filter="url(#filter0_d_195_53933)">
<circle cx="315" cy="257" r="60" fill="#8269F6"/>
<circle cx="315" cy="257" r="57.7301" stroke="#1B0091" stroke-opacity="0.12" stroke-width="4.53977"/>
</g>
<path d="M303.716 238H286V256.24H303.716V238Z" fill="url(#paint0_linear_195_53933)"/>
<path d="M303.716 238H286V256.24H303.716V238Z" fill="white"/>
<path d="M314.788 256.24C319.68 256.24 323.646 252.157 323.646 247.12C323.646 242.083 319.68 238 314.788 238C309.896 238 305.93 242.083 305.93 247.12C305.93 252.157 309.896 256.24 314.788 256.24Z" fill="url(#paint1_linear_195_53933)"/>
<path d="M314.788 256.24C319.68 256.24 323.646 252.157 323.646 247.12C323.646 242.083 319.68 238 314.788 238C309.896 238 305.93 242.083 305.93 247.12C305.93 252.157 309.896 256.24 314.788 256.24Z" fill="white"/>
<path d="M334.718 256.24C339.61 256.24 343.576 252.157 343.576 247.12C343.576 242.083 339.61 238 334.718 238C329.826 238 325.86 242.083 325.86 247.12C325.86 252.157 329.826 256.24 334.718 256.24Z" fill="url(#paint2_linear_195_53933)"/>
<path d="M334.718 256.24C339.61 256.24 343.576 252.157 343.576 247.12C343.576 242.083 339.61 238 334.718 238C329.826 238 325.86 242.083 325.86 247.12C325.86 252.157 329.826 256.24 334.718 256.24Z" fill="white"/>
<path d="M293.479 266.478C293.42 265.929 293.172 265.502 292.735 265.197C292.303 264.891 291.74 264.738 291.047 264.738C290.559 264.738 290.141 264.811 289.793 264.958C289.444 265.105 289.178 265.303 288.993 265.555C288.808 265.806 288.713 266.093 288.709 266.415C288.709 266.683 288.77 266.916 288.892 267.112C289.018 267.309 289.188 267.477 289.402 267.615C289.616 267.749 289.854 267.862 290.114 267.954C290.375 268.046 290.637 268.124 290.902 268.186L292.111 268.488C292.599 268.601 293.067 268.754 293.516 268.946C293.97 269.139 294.375 269.382 294.732 269.675C295.094 269.968 295.379 270.322 295.589 270.737C295.799 271.151 295.904 271.637 295.904 272.194C295.904 272.947 295.711 273.611 295.325 274.185C294.938 274.754 294.38 275.2 293.649 275.523C292.922 275.841 292.042 276 291.009 276C290.005 276 289.133 275.845 288.394 275.535C287.659 275.225 287.084 274.773 286.668 274.179C286.256 273.584 286.034 272.86 286 272.005H288.3C288.333 272.453 288.472 272.826 288.715 273.123C288.959 273.421 289.276 273.643 289.667 273.789C290.062 273.936 290.503 274.009 290.99 274.009C291.498 274.009 291.943 273.934 292.326 273.783C292.712 273.628 293.014 273.414 293.233 273.142C293.451 272.866 293.563 272.543 293.567 272.175C293.563 271.84 293.464 271.564 293.271 271.346C293.078 271.124 292.807 270.94 292.458 270.793C292.114 270.642 291.71 270.508 291.248 270.391L289.78 270.014C288.718 269.742 287.878 269.33 287.26 268.777C286.647 268.22 286.34 267.481 286.34 266.56C286.34 265.802 286.546 265.138 286.958 264.569C287.373 263.999 287.938 263.557 288.652 263.243C289.367 262.925 290.175 262.766 291.078 262.766C291.994 262.766 292.796 262.925 293.485 263.243C294.178 263.557 294.722 263.995 295.117 264.556C295.512 265.113 295.715 265.754 295.728 266.478H293.479Z" fill="url(#paint3_linear_195_53933)"/>
<path d="M293.479 266.478C293.42 265.929 293.172 265.502 292.735 265.197C292.303 264.891 291.74 264.738 291.047 264.738C290.559 264.738 290.141 264.811 289.793 264.958C289.444 265.105 289.178 265.303 288.993 265.555C288.808 265.806 288.713 266.093 288.709 266.415C288.709 266.683 288.77 266.916 288.892 267.112C289.018 267.309 289.188 267.477 289.402 267.615C289.616 267.749 289.854 267.862 290.114 267.954C290.375 268.046 290.637 268.124 290.902 268.186L292.111 268.488C292.599 268.601 293.067 268.754 293.516 268.946C293.97 269.139 294.375 269.382 294.732 269.675C295.094 269.968 295.379 270.322 295.589 270.737C295.799 271.151 295.904 271.637 295.904 272.194C295.904 272.947 295.711 273.611 295.325 274.185C294.938 274.754 294.38 275.2 293.649 275.523C292.922 275.841 292.042 276 291.009 276C290.005 276 289.133 275.845 288.394 275.535C287.659 275.225 287.084 274.773 286.668 274.179C286.256 273.584 286.034 272.86 286 272.005H288.3C288.333 272.453 288.472 272.826 288.715 273.123C288.959 273.421 289.276 273.643 289.667 273.789C290.062 273.936 290.503 274.009 290.99 274.009C291.498 274.009 291.943 273.934 292.326 273.783C292.712 273.628 293.014 273.414 293.233 273.142C293.451 272.866 293.563 272.543 293.567 272.175C293.563 271.84 293.464 271.564 293.271 271.346C293.078 271.124 292.807 270.94 292.458 270.793C292.114 270.642 291.71 270.508 291.248 270.391L289.78 270.014C288.718 269.742 287.878 269.33 287.26 268.777C286.647 268.22 286.34 267.481 286.34 266.56C286.34 265.802 286.546 265.138 286.958 264.569C287.373 263.999 287.938 263.557 288.652 263.243C289.367 262.925 290.175 262.766 291.078 262.766C291.994 262.766 292.796 262.925 293.485 263.243C294.178 263.557 294.722 263.995 295.117 264.556C295.512 265.113 295.715 265.754 295.728 266.478H293.479Z" fill="white"/>
<path d="M297.178 275.805V266.158H299.458V275.805H297.178ZM298.324 264.788C297.963 264.788 297.652 264.669 297.392 264.43C297.131 264.188 297.001 263.897 297.001 263.557C297.001 263.214 297.131 262.923 297.392 262.684C297.652 262.441 297.963 262.32 298.324 262.32C298.69 262.32 299.001 262.441 299.257 262.684C299.517 262.923 299.647 263.214 299.647 263.557C299.647 263.897 299.517 264.188 299.257 264.43C299.001 264.669 298.69 264.788 298.324 264.788Z" fill="url(#paint4_linear_195_53933)"/>
<path d="M297.178 275.805V266.158H299.458V275.805H297.178ZM298.324 264.788C297.963 264.788 297.652 264.669 297.392 264.43C297.131 264.188 297.001 263.897 297.001 263.557C297.001 263.214 297.131 262.923 297.392 262.684C297.652 262.441 297.963 262.32 298.324 262.32C298.69 262.32 299.001 262.441 299.257 262.684C299.517 262.923 299.647 263.214 299.647 263.557C299.647 263.897 299.517 264.188 299.257 264.43C299.001 264.669 298.69 264.788 298.324 264.788Z" fill="white"/>
<path d="M303.375 270.152V275.805H301.094V266.158H303.274V267.797H303.387C303.61 267.257 303.965 266.828 304.452 266.509C304.944 266.191 305.551 266.032 306.273 266.032C306.941 266.032 307.523 266.174 308.018 266.459C308.518 266.744 308.905 267.156 309.178 267.697C309.455 268.237 309.591 268.892 309.587 269.662V275.805H307.306V270.014C307.306 269.369 307.138 268.865 306.802 268.5C306.47 268.136 306.011 267.954 305.423 267.954C305.023 267.954 304.669 268.042 304.358 268.218C304.051 268.39 303.81 268.639 303.633 268.965C303.461 269.292 303.375 269.688 303.375 270.152Z" fill="url(#paint5_linear_195_53933)"/>
<path d="M303.375 270.152V275.805H301.094V266.158H303.274V267.797H303.387C303.61 267.257 303.965 266.828 304.452 266.509C304.944 266.191 305.551 266.032 306.273 266.032C306.941 266.032 307.523 266.174 308.018 266.459C308.518 266.744 308.905 267.156 309.178 267.697C309.455 268.237 309.591 268.892 309.587 269.662V275.805H307.306V270.014C307.306 269.369 307.138 268.865 306.802 268.5C306.47 268.136 306.011 267.954 305.423 267.954C305.023 267.954 304.669 268.042 304.358 268.218C304.051 268.39 303.81 268.639 303.633 268.965C303.461 269.292 303.375 269.688 303.375 270.152Z" fill="white"/>
<path d="M315.417 275.994C314.451 275.994 313.622 275.782 312.929 275.359C312.24 274.936 311.708 274.352 311.335 273.607C310.965 272.857 310.78 271.995 310.78 271.019C310.78 270.039 310.969 269.175 311.347 268.425C311.725 267.671 312.259 267.085 312.948 266.666C313.641 266.244 314.46 266.032 315.405 266.032C316.19 266.032 316.885 266.177 317.49 266.465C318.099 266.75 318.584 267.154 318.946 267.678C319.307 268.197 319.513 268.804 319.563 269.499H317.383C317.295 269.034 317.085 268.647 316.753 268.337C316.425 268.023 315.986 267.866 315.436 267.866C314.97 267.866 314.56 267.992 314.208 268.243C313.855 268.49 313.58 268.846 313.382 269.311C313.189 269.776 313.092 270.332 313.092 270.981C313.092 271.639 313.189 272.204 313.382 272.677C313.575 273.146 313.846 273.509 314.195 273.764C314.548 274.015 314.962 274.141 315.436 274.141C315.772 274.141 316.073 274.078 316.337 273.952C316.606 273.823 316.831 273.636 317.011 273.393C317.192 273.151 317.316 272.855 317.383 272.508H319.563C319.508 273.19 319.307 273.795 318.958 274.323C318.61 274.846 318.135 275.257 317.534 275.554C316.934 275.847 316.228 275.994 315.417 275.994Z" fill="url(#paint6_linear_195_53933)"/>
<path d="M315.417 275.994C314.451 275.994 313.622 275.782 312.929 275.359C312.24 274.936 311.708 274.352 311.335 273.607C310.965 272.857 310.78 271.995 310.78 271.019C310.78 270.039 310.969 269.175 311.347 268.425C311.725 267.671 312.259 267.085 312.948 266.666C313.641 266.244 314.46 266.032 315.405 266.032C316.19 266.032 316.885 266.177 317.49 266.465C318.099 266.75 318.584 267.154 318.946 267.678C319.307 268.197 319.513 268.804 319.563 269.499H317.383C317.295 269.034 317.085 268.647 316.753 268.337C316.425 268.023 315.986 267.866 315.436 267.866C314.97 267.866 314.56 267.992 314.208 268.243C313.855 268.49 313.58 268.846 313.382 269.311C313.189 269.776 313.092 270.332 313.092 270.981C313.092 271.639 313.189 272.204 313.382 272.677C313.575 273.146 313.846 273.509 314.195 273.764C314.548 274.015 314.962 274.141 315.436 274.141C315.772 274.141 316.073 274.078 316.337 273.952C316.606 273.823 316.831 273.636 317.011 273.393C317.192 273.151 317.316 272.855 317.383 272.508H319.563C319.508 273.19 319.307 273.795 318.958 274.323C318.61 274.846 318.135 275.257 317.534 275.554C316.934 275.847 316.228 275.994 315.417 275.994Z" fill="white"/>
<path d="M320.726 275.805V266.158H322.938V267.766H323.038C323.215 267.209 323.517 266.78 323.946 266.478C324.378 266.172 324.872 266.02 325.426 266.02C325.552 266.02 325.693 266.026 325.848 266.038C326.008 266.047 326.14 266.061 326.245 266.082V268.174C326.149 268.14 325.995 268.111 325.785 268.086C325.58 268.057 325.38 268.042 325.187 268.042C324.771 268.042 324.397 268.132 324.065 268.312C323.738 268.488 323.479 268.733 323.29 269.047C323.101 269.361 323.007 269.723 323.007 270.134V275.805H320.726Z" fill="url(#paint7_linear_195_53933)"/>
<path d="M320.726 275.805V266.158H322.938V267.766H323.038C323.215 267.209 323.517 266.78 323.946 266.478C324.378 266.172 324.872 266.02 325.426 266.02C325.552 266.02 325.693 266.026 325.848 266.038C326.008 266.047 326.14 266.061 326.245 266.082V268.174C326.149 268.14 325.995 268.111 325.785 268.086C325.58 268.057 325.38 268.042 325.187 268.042C324.771 268.042 324.397 268.132 324.065 268.312C323.738 268.488 323.479 268.733 323.29 269.047C323.101 269.361 323.007 269.723 323.007 270.134V275.805H320.726Z" fill="white"/>
<path d="M329.662 276C329.049 276 328.497 275.891 328.005 275.673C327.518 275.451 327.132 275.125 326.846 274.694C326.565 274.262 326.424 273.73 326.424 273.098C326.424 272.554 326.525 272.104 326.726 271.748C326.928 271.392 327.203 271.107 327.552 270.894C327.9 270.68 328.293 270.519 328.73 270.41C329.171 270.297 329.627 270.215 330.097 270.165C330.664 270.106 331.124 270.054 331.477 270.008C331.83 269.958 332.086 269.882 332.246 269.782C332.409 269.677 332.491 269.516 332.491 269.298V269.26C332.491 268.787 332.351 268.421 332.069 268.161C331.788 267.902 331.382 267.772 330.853 267.772C330.295 267.772 329.851 267.893 329.524 268.136C329.2 268.379 328.982 268.666 328.869 268.997L326.739 268.695C326.907 268.109 327.184 267.619 327.571 267.225C327.957 266.828 328.43 266.53 328.988 266.334C329.547 266.133 330.164 266.032 330.841 266.032C331.307 266.032 331.771 266.087 332.233 266.195C332.695 266.304 333.117 266.484 333.499 266.736C333.882 266.983 334.188 267.32 334.419 267.747C334.654 268.174 334.772 268.708 334.772 269.348V275.805H332.58V274.48H332.504C332.365 274.748 332.17 274.999 331.918 275.234C331.67 275.464 331.357 275.65 330.979 275.793C330.605 275.931 330.166 276 329.662 276ZM330.255 274.329C330.712 274.329 331.109 274.239 331.445 274.059C331.781 273.875 332.04 273.632 332.22 273.331C332.405 273.029 332.498 272.7 332.498 272.344V271.208C332.426 271.266 332.304 271.321 332.132 271.371C331.964 271.421 331.775 271.465 331.565 271.503C331.355 271.54 331.147 271.574 330.941 271.603C330.736 271.633 330.557 271.658 330.406 271.679C330.066 271.725 329.761 271.8 329.492 271.905C329.223 272.009 329.011 272.156 328.856 272.344C328.701 272.529 328.623 272.767 328.623 273.06C328.623 273.479 328.776 273.795 329.083 274.009C329.389 274.222 329.78 274.329 330.255 274.329Z" fill="url(#paint8_linear_195_53933)"/>
<path d="M329.662 276C329.049 276 328.497 275.891 328.005 275.673C327.518 275.451 327.132 275.125 326.846 274.694C326.565 274.262 326.424 273.73 326.424 273.098C326.424 272.554 326.525 272.104 326.726 271.748C326.928 271.392 327.203 271.107 327.552 270.894C327.9 270.68 328.293 270.519 328.73 270.41C329.171 270.297 329.627 270.215 330.097 270.165C330.664 270.106 331.124 270.054 331.477 270.008C331.83 269.958 332.086 269.882 332.246 269.782C332.409 269.677 332.491 269.516 332.491 269.298V269.26C332.491 268.787 332.351 268.421 332.069 268.161C331.788 267.902 331.382 267.772 330.853 267.772C330.295 267.772 329.851 267.893 329.524 268.136C329.2 268.379 328.982 268.666 328.869 268.997L326.739 268.695C326.907 268.109 327.184 267.619 327.571 267.225C327.957 266.828 328.43 266.53 328.988 266.334C329.547 266.133 330.164 266.032 330.841 266.032C331.307 266.032 331.771 266.087 332.233 266.195C332.695 266.304 333.117 266.484 333.499 266.736C333.882 266.983 334.188 267.32 334.419 267.747C334.654 268.174 334.772 268.708 334.772 269.348V275.805H332.58V274.48H332.504C332.365 274.748 332.17 274.999 331.918 275.234C331.67 275.464 331.357 275.65 330.979 275.793C330.605 275.931 330.166 276 329.662 276ZM330.255 274.329C330.712 274.329 331.109 274.239 331.445 274.059C331.781 273.875 332.04 273.632 332.22 273.331C332.405 273.029 332.498 272.7 332.498 272.344V271.208C332.426 271.266 332.304 271.321 332.132 271.371C331.964 271.421 331.775 271.465 331.565 271.503C331.355 271.54 331.147 271.574 330.941 271.603C330.736 271.633 330.557 271.658 330.406 271.679C330.066 271.725 329.761 271.8 329.492 271.905C329.223 272.009 329.011 272.156 328.856 272.344C328.701 272.529 328.623 272.767 328.623 273.06C328.623 273.479 328.776 273.795 329.083 274.009C329.389 274.222 329.78 274.329 330.255 274.329Z" fill="white"/>
<path d="M337.761 275.943C337.379 275.943 337.051 275.809 336.778 275.541C336.505 275.273 336.37 274.947 336.375 274.562C336.37 274.185 336.505 273.862 336.778 273.594C337.051 273.326 337.379 273.192 337.761 273.192C338.13 273.192 338.452 273.326 338.725 273.594C339.002 273.862 339.143 274.185 339.147 274.562C339.143 274.817 339.075 275.049 338.945 275.259C338.819 275.468 338.651 275.636 338.441 275.761C338.235 275.883 338.009 275.943 337.761 275.943Z" fill="url(#paint9_linear_195_53933)"/>
<path d="M337.761 275.943C337.379 275.943 337.051 275.809 336.778 275.541C336.505 275.273 336.37 274.947 336.375 274.562C336.37 274.185 336.505 273.862 336.778 273.594C337.051 273.326 337.379 273.192 337.761 273.192C338.13 273.192 338.452 273.326 338.725 273.594C339.002 273.862 339.143 274.185 339.147 274.562C339.143 274.817 339.075 275.049 338.945 275.259C338.819 275.468 338.651 275.636 338.441 275.761C338.235 275.883 338.009 275.943 337.761 275.943Z" fill="white"/>
<rect x="478" y="213" width="88" height="88" rx="44" fill="white" stroke="#200060" stroke-opacity="0.1" stroke-width="2"/>
<g clip-path="url(#clip0_195_53933)">
<path fill-rule="evenodd" clip-rule="evenodd" d="M511 253.75V264.15H514.333C514.684 264.15 515.03 264.217 515.354 264.348C515.677 264.479 515.971 264.67 516.219 264.912C516.467 265.153 516.663 265.44 516.797 265.755C516.931 266.07 517 266.409 517 266.75V270H525L535 260.25V249.85H531.667C531.316 249.85 530.97 249.783 530.646 249.652C530.323 249.521 530.029 249.33 529.781 249.088C529.533 248.847 529.337 248.56 529.203 248.245C529.069 247.93 529 247.591 529 247.25V244H521L511 253.75ZM522.333 263.5H517.667V256.35L523.667 250.5H528.333V257.65L522.333 263.5Z" fill="#8067F6"/>
</g>
<rect x="64" y="213" width="88" height="88" rx="44" fill="white" stroke="#200060" stroke-opacity="0.1" stroke-width="2"/>
<path d="M108 243.228C115.23 243.228 121.091 249.117 121.091 256.383H118.71H114.089C114.089 253.004 111.363 250.264 108 250.264C104.638 250.264 101.911 253.004 101.911 256.383H97.2887H94.9092C94.9092 249.117 100.77 243.228 108 243.228Z" fill="#8067F6"/>
<path d="M108 269.539C100.77 269.539 94.9092 263.649 94.9092 256.384H97.2887H101.911H114.089C114.089 259.763 111.363 262.502 108 262.502C104.638 262.502 101.911 259.763 101.911 256.384H97.2887C97.2887 262.328 102.084 267.147 108 267.147C113.915 267.147 118.71 262.328 118.71 256.384H121.091C121.091 263.649 115.23 269.539 108 269.539Z" fill="#8067F6"/>
<g filter="url(#filter1_f_195_53933)">
<circle cx="164" cy="257" r="6" fill="#826CE9"/>
</g>
<circle cx="164" cy="257" r="6" fill="#826CE9"/>
<g filter="url(#filter2_f_195_53933)">
<circle cx="466" cy="257" r="6" fill="#826CE9"/>
</g>
<circle cx="466" cy="257" r="6" fill="#826CE9"/>
<path d="M108 213L108 167.775C108 141.265 129.49 119.775 156 119.775L267 119.775C293.51 119.775 315 98.2847 315 71.7751L315 -9.04826e-06" stroke="url(#paint10_linear_195_53933)" stroke-opacity="0.32" stroke-width="2"/>
<path d="M523 213L523 167.775C523 141.265 501.51 119.775 475 119.775L364 119.775C337.49 119.775 316 98.2847 316 71.7751L316 9.04826e-06" stroke="url(#paint11_linear_195_53933)" stroke-opacity="0.32" stroke-width="2"/>
<defs>
<filter id="filter0_d_195_53933" x="209.602" y="162.952" width="210.795" height="210.795" filterUnits="userSpaceOnUse" color-interpolation-filters="sRGB">
<feFlood flood-opacity="0" result="BackgroundImageFix"/>
<feColorMatrix in="SourceAlpha" type="matrix" values="0 0 0 0 0 0 0 0 0 0 0 0 0 0 0 0 0 0 127 0" result="hardAlpha"/>
<feOffset dy="11.3494"/>
<feGaussianBlur stdDeviation="22.6989"/>
<feComposite in2="hardAlpha" operator="out"/>
<feColorMatrix type="matrix" values="0 0 0 0 0.0426529 0 0 0 0 0.0707898 0 0 0 0 0.605391 0 0 0 0.3 0"/>
<feBlend mode="normal" in2="BackgroundImageFix" result="effect1_dropShadow_195_53933"/>
<feBlend mode="normal" in="SourceGraphic" in2="effect1_dropShadow_195_53933" result="shape"/>
</filter>
<filter id="filter1_f_195_53933" x="150" y="243" width="28" height="28" filterUnits="userSpaceOnUse" color-interpolation-filters="sRGB">
<feFlood flood-opacity="0" result="BackgroundImageFix"/>
<feBlend mode="normal" in="SourceGraphic" in2="BackgroundImageFix" result="shape"/>
<feGaussianBlur stdDeviation="4" result="effect1_foregroundBlur_195_53933"/>
</filter>
<filter id="filter2_f_195_53933" x="452" y="243" width="28" height="28" filterUnits="userSpaceOnUse" color-interpolation-filters="sRGB">
<feFlood flood-opacity="0" result="BackgroundImageFix"/>
<feBlend mode="normal" in="SourceGraphic" in2="BackgroundImageFix" result="shape"/>
<feGaussianBlur stdDeviation="4" result="effect1_foregroundBlur_195_53933"/>
</filter>
<linearGradient id="paint0_linear_195_53933" x1="286" y1="257" x2="343.576" y2="257" gradientUnits="userSpaceOnUse">
<stop stop-color="#1A0D34"/>
<stop offset="1" stop-color="#462191"/>
</linearGradient>
<linearGradient id="paint1_linear_195_53933" x1="286" y1="257" x2="343.576" y2="257" gradientUnits="userSpaceOnUse">
<stop stop-color="#1A0D34"/>
<stop offset="1" stop-color="#462191"/>
</linearGradient>
<linearGradient id="paint2_linear_195_53933" x1="286" y1="257" x2="343.576" y2="257" gradientUnits="userSpaceOnUse">
<stop stop-color="#1A0D34"/>
<stop offset="1" stop-color="#462191"/>
</linearGradient>
<linearGradient id="paint3_linear_195_53933" x1="286" y1="257" x2="343.576" y2="257" gradientUnits="userSpaceOnUse">
<stop stop-color="#1A0D34"/>
<stop offset="1" stop-color="#462191"/>
</linearGradient>
<linearGradient id="paint4_linear_195_53933" x1="286" y1="257" x2="343.576" y2="257" gradientUnits="userSpaceOnUse">
<stop stop-color="#1A0D34"/>
<stop offset="1" stop-color="#462191"/>
</linearGradient>
<linearGradient id="paint5_linear_195_53933" x1="286" y1="257" x2="343.576" y2="257" gradientUnits="userSpaceOnUse">
<stop stop-color="#1A0D34"/>
<stop offset="1" stop-color="#462191"/>
</linearGradient>
<linearGradient id="paint6_linear_195_53933" x1="286" y1="257" x2="343.576" y2="257" gradientUnits="userSpaceOnUse">
<stop stop-color="#1A0D34"/>
<stop offset="1" stop-color="#462191"/>
</linearGradient>
<linearGradient id="paint7_linear_195_53933" x1="286" y1="257" x2="343.576" y2="257" gradientUnits="userSpaceOnUse">
<stop stop-color="#1A0D34"/>
<stop offset="1" stop-color="#462191"/>
</linearGradient>
<linearGradient id="paint8_linear_195_53933" x1="286" y1="257" x2="343.576" y2="257" gradientUnits="userSpaceOnUse">
<stop stop-color="#1A0D34"/>
<stop offset="1" stop-color="#462191"/>
</linearGradient>
<linearGradient id="paint9_linear_195_53933" x1="286" y1="257" x2="343.576" y2="257" gradientUnits="userSpaceOnUse">
<stop stop-color="#1A0D34"/>
<stop offset="1" stop-color="#462191"/>
</linearGradient>
<linearGradient id="paint10_linear_195_53933" x1="315" y1="-7.02223e-07" x2="108" y2="193" gradientUnits="userSpaceOnUse">
<stop stop-color="#826CE9" stop-opacity="0.1"/>
<stop offset="1" stop-color="#826CE9"/>
</linearGradient>
<linearGradient id="paint11_linear_195_53933" x1="316" y1="-1.25309e-05" x2="523" y2="193" gradientUnits="userSpaceOnUse">
<stop stop-color="#826CE9" stop-opacity="0.1"/>
<stop offset="1" stop-color="#826CE9"/>
</linearGradient>
<clipPath id="clip0_195_53933">
<rect width="24" height="26" fill="white" transform="translate(511 244)"/>
</clipPath>
</defs>
</svg>
